<svg xmlns="http://www.w3.org/2000/svg" viewBox="0 0 853.43 479.85"><defs><style>.cls-1{fill:#4eb8e4;}.cls-2{fill:#000851;}.cls-3{fill:#e64f0f;}.cls-4{fill:#f8c10c;}.cls-5{fill:#f8f7f7;}.cls-6{fill:#fcd3e2;}.cls-7{fill:#d0dff6;}.cls-8{fill:#dcebf2;}.cls-9{fill:#ed8d01;}.cls-10{fill:#ebe9e9;}.cls-11{fill:#fdfdfd;}.cls-12{fill:#fefefe;}.cls-13{fill:#fdfefe;}</style></defs><title>fundo-reflect</title><g id="Layer_3" data-name="Layer 3"><path class="cls-1" d="M300.3,479.85H639c.58-1.34-.25-2.47-.61-3.65-2.33-7.6-3.12-15.24-1.1-23.06a39.42,39.42,0,0,1,15.9-22.82,65.37,65.37,0,0,1,6.3-3.89c.75-.41,1.64-.7,1.8-1.74-.53-4.6-.49-9.23-1.16-13.83-2.53-17.23-9.73-32.33-20.81-45.61A128.15,128.15,0,0,0,613,341.32a145.49,145.49,0,0,0-36.73-17.87,201.62,201.62,0,0,0-45.3-8.86c-10.5-.94-21-1.14-31.57-1.54-12-.44-23.94-.45-35.9-1.25-13.11-.88-26.1-2.31-38.85-5.5a122.9,122.9,0,0,1-52.7-27.8c-8.56-7.65-16.21-16.13-21.16-26.68a62.14,62.14,0,0,1-5.65-33.11c1.46-15,6.77-28.85,13-42.4s13.07-26.51,19.34-39.89c7.55-16.09,13.15-32.78,15.1-50.51,2.09-19,1-37.63-7-55.4A73.27,73.27,0,0,0,363,1.77,6.53,6.53,0,0,0,359.53.24H215c-4.19,1.17-8.11,2.78-10.63,6.63-.09,3.41-.7,3.79-3.79,2.38a2.76,2.76,0,0,0-2.23.64,138.09,138.09,0,0,0-14.51,11.6,12.45,12.45,0,0,0,.16,4c1,11.55-2,21.68-10.56,29.81-7,6.62-15.38,9.13-24.87,8.31-5.81-.51-11.57-1.46-17.44-1.24-14.47.54-26.72,5.88-36.21,17C89.33,85.83,87,93.58,87,102c0,11,0,22-2,32.94A62.75,62.75,0,0,1,78.27,155c-7.48,13.34-19.11,21-33.76,24.27-13.59,3-27,1.89-40.19-2.41-1.37-.45-2.76-1.45-4.33-.48V437.19c1.59,0,1.82-1.39,2.33-2.37,4.6-8.93,7.56-18.46,10.12-28.13,3.23-12.19,5.71-24.59,9.9-36.53,4-11.45,9.66-21.87,18.24-30.61a66.69,66.69,0,0,1,34-18.62,72.44,72.44,0,0,1,36.48,1.4c10.42,3,17.77,9.74,23.55,18.56,4.26,6.5,7.51,13.54,11,20.46,2.65,5.28,5.39,10.5,8.54,15.52,7.34,11.69,18,18.83,30.93,22.85,12.24,3.8,24.79,4.27,37.49,3.47,10.62-.66,21.11-2.38,31.69-3.35,12.51-1.15,25-.93,36.73,4.27,11.5,5.1,19.39,13.55,21.64,26.21,1.43,8-.45,15.86-3.22,23.47s-6.3,14.86-9,22.47C300,477.43,299.24,478.63,300.3,479.85Z"/><path class="cls-2" d="M300.3,479.85c0-2.23,1.14-4.13,1.91-6.12,2.59-6.7,5.67-13.2,8.06-20,2.21-6.28,3.77-12.65,3.6-19.41a31.25,31.25,0,0,0-6-17.62c-6.89-9.8-16.69-14.78-28.2-16.91a75.68,75.68,0,0,0-16-1.32,165.11,165.11,0,0,0-18.82,1.6c-5,.73-10.13,1.21-15.21,1.72a157.79,157.79,0,0,1-21.29.82,83.89,83.89,0,0,1-25.6-4.51c-8.16-2.92-15.54-7.12-21.56-13.45a66.57,66.57,0,0,1-9.33-13c-3.8-6.67-7-13.66-10.48-20.48A88,88,0,0,0,131,334.59,38,38,0,0,0,114,322.49a74.58,74.58,0,0,0-17.73-3.8,71.53,71.53,0,0,0-37.71,6.86,66.3,66.3,0,0,0-25.66,21.79,89.32,89.32,0,0,0-11.4,22.59c-3.17,9-5.32,18.22-7.59,27.44a238.78,238.78,0,0,1-7.25,25.31A73.35,73.35,0,0,1,0,437.19v42.66H31.18a5,5,0,0,0,1.64-3.1,57.13,57.13,0,0,1,15.57-26c11.48-11,25.08-17,41.24-17.1,14.79-.12,27.85,4.29,39.19,13.68a58.72,58.72,0,0,1,19.49,29.55,5.8,5.8,0,0,0,1.36,3Z"/><path class="cls-2" d="M661.06,424.73a57.08,57.08,0,0,0-12.17,8,39.5,39.5,0,0,0-12.53,20.76,41.41,41.41,0,0,0,2.63,26.4H853a3.69,3.69,0,0,0,.23-2.1q0-59.14,0-118.29a5.46,5.46,0,0,0-.14-1.89,3.51,3.51,0,0,0-1.82-2.12c-6.72-4.13-11-10.31-14.45-17.19-1.75-3.5-3.4-7.06-5.48-10.38C823,314.62,811.87,305.09,796.07,302c-9-1.76-17.77-.93-25.81,3.58-10.25,5.76-14.75,15.36-16.43,26.5-1.58,10.54-.13,20.85,2.75,31a179,179,0,0,1,4.6,18.1c.88,5.05,1.45,10.07.57,15.22-1.34,7.83-5.84,13.53-11.83,18.25-7,5.55-15.28,7.82-24.1,8.23-10.26.48-20.4-1-30.55-2.14-9.91-1.09-19.78-1.34-29.48,1.48C664.08,422.73,662.12,422.93,661.06,424.73Z"/><path class="cls-3" d="M0,176.41a128.92,128.92,0,0,0,16.87,4.47,80.73,80.73,0,0,0,14.56.87,60.34,60.34,0,0,0,27.41-6.7,47.41,47.41,0,0,0,22.49-24.27c3.18-7.38,4.7-15.18,5.58-23.16,1-8.59.79-17.2.89-25.81a37.69,37.69,0,0,1,1.8-11c2.8-8.81,8.69-15.14,16.32-20,9.72-6.18,20.46-8.29,31.85-7.44,3.65.27,7.27.9,10.92,1.21A31.7,31.7,0,0,0,168,60.44c9.39-5.57,14.65-14,16.55-24.61a41.67,41.67,0,0,0-.34-14.73c.72-.89.34-1.85.07-2.74a65.93,65.93,0,0,0-7.81-16.62A2.84,2.84,0,0,0,174.72.25H2.82A5.93,5.93,0,0,0,0,.48Z"/><path class="cls-4" d="M149.67,479.85a10.08,10.08,0,0,0-.81-4,60.38,60.38,0,0,0-28.15-35.23C109.36,434.05,97,431.74,84.07,433a58.72,58.72,0,0,0-32.56,13.82,60.11,60.11,0,0,0-20.33,33h24c2-2.87,3.36-6.11,5.49-8.92a37.52,37.52,0,0,1,52.86-7,38.1,38.1,0,0,1,11,13.66,5.94,5.94,0,0,0,1.68,2.27Z"/><path class="cls-1" d="M126.16,479.85a33.41,33.41,0,0,0-9.57-14.38,37,37,0,0,0-20.19-9.73A37.83,37.83,0,0,0,68,462.55a38.46,38.46,0,0,0-11.82,13.94,5.88,5.88,0,0,0-1.06,3.36Z"/><path class="cls-5" d="M174.64.42a1.2,1.2,0,0,0,.37.1,5.1,5.1,0,0,0,3.39.93h31.15a12.17,12.17,0,0,0,4.41-1H360.27c1.91,1,4,1,6.07,1q239.84,0,479.66,0c6.59,0,6-.63,6,5.87q0,172.31,0,344.62c0,1.65-.36,3.37.68,4.89a.52.52,0,0,0,.76.29V0H174.62c-.19.1-.25.2-.18.29S174.57.42,174.64.42Z"/><path class="cls-6" d="M174.64.42c0-.14,0-.28,0-.42Q88.39,0,2.15,0C1.45,0,.53-.52,0,.48H171.53C172.56.48,173.6.44,174.64.42Z"/><path class="cls-7" d="M853.43,357.13a3.69,3.69,0,0,1-.47,0,.31.31,0,0,0-.5,0,6.14,6.14,0,0,1,.42,3.28q0,58.15,0,116.31c0,1,0,2.08.06,3.11.15-.1.5.25.48-.24s0-1.27,0-1.91Z"/><path class="cls-8" d="M852.46,357.15l.5,0c0-1.52,0-3,0-4.55q0-174.13,0-348.25c0-4.26.43-3.84-3.86-3.84H360.27c2.16,1.87,4.28,3.79,6.49,5.59a40.83,40.83,0,0,1,5.73,5.73,80.28,80.28,0,0,1,5.66,7.09,86.26,86.26,0,0,1,12.72,31.49,88.39,88.39,0,0,1,1.55,20c-.07,2,0,4,0,6a107.66,107.66,0,0,1-1.33,13.51,126.12,126.12,0,0,1-2.95,14.72,165,165,0,0,1-8.58,24.84c-4.13,9.44-8.76,18.62-13.28,27.86-3.47,7.08-6.91,14.17-10.19,21.34a144.74,144.74,0,0,0-10.42,30.48,83.92,83.92,0,0,0-1.34,8.71,87.27,87.27,0,0,0-.34,9.55,58.8,58.8,0,0,0,3.9,19.8,61.72,61.72,0,0,0,5.56,11.37,83.55,83.55,0,0,0,6.29,8.7,130.28,130.28,0,0,0,11.33,11.69c2.51,2.42,5.42,4.42,8.13,6.64a98.5,98.5,0,0,0,14,9.2,114.87,114.87,0,0,0,25.51,10.71c3.61,1,7.19,2.14,10.86,2.89,4.44.9,8.88,1.83,13.4,2.31,3.39.37,6.76,1.09,10.15,1.29,2.63.15,5.22.63,7.86.62,4.7,0,9.41.33,14.09.6,4,.24,8,.3,12,.32,7.58,0,15.14.57,22.73.62a95,95,0,0,1,10.25.43c4.58.54,9.19.68,13.77,1.19,4.43.5,8.83,1.12,13.25,1.66a83.23,83.23,0,0,1,9.4,1.64c6.11,1.45,12.23,2.9,18.24,4.83a168,168,0,0,1,23.25,9.41c3,1.48,5.79,3.36,8.71,5a106.94,106.94,0,0,1,15.75,11.19,133.43,133.43,0,0,1,14.81,14.6,94.43,94.43,0,0,1,8.9,11.82,86.34,86.34,0,0,1,11.81,27.81,83.07,83.07,0,0,1,2.26,18.9c0,.82-.3,1.85.95,2.14a56.68,56.68,0,0,1,15.09-3.58,78,78,0,0,1,12.69-.1c6.12.44,12.24,1.09,18.33,1.86a126.9,126.9,0,0,0,17.21.9,45,45,0,0,0,18.61-4c7.44-3.46,13.53-8.51,17.23-16a30,30,0,0,0,2.72-16.06c-.69-8.51-3.22-16.58-5.48-24.73-2.36-8.51-3.83-17.12-3.32-26,.46-7.86,2.34-15.32,6.8-21.91a28.42,28.42,0,0,1,18.8-12.2c13.36-2.63,25.35.73,36.1,8.76a58.53,58.53,0,0,1,16.95,20.52c1.9,3.69,3.7,7.43,5.78,11A35.93,35.93,0,0,0,852.46,357.15Z"/><path class="cls-9" d="M461.59,403.16a29.25,29.25,0,0,0-29.23,29.35,29.38,29.38,0,1,0,58.75-.06A29.25,29.25,0,0,0,461.59,403.16Z"/><path class="cls-10" d="M214,.49l-39,0c1,1.66,1.88,3.32,2.84,5a60.12,60.12,0,0,1,6.4,15.62c.58.34,1,.11,1.48-.31a87.63,87.63,0,0,1,8.1-6.66c2.2-1.54,4-3.62,6.66-4.53.62-2.29,2.3-2.69,4.35-2.41.09-1.09.9-1.56,1.72-2.07C209,3.58,211.7,2.36,214,.49Z"/><path class="cls-11" d="M202.45,19.7a2.84,2.84,0,0,0-2.32,2.62,2.7,2.7,0,0,0,2.48,2.43,2.74,2.74,0,0,0,2.61-2.58A3,3,0,0,0,202.45,19.7Z"/><path class="cls-12" d="M247.54,8.81A2.37,2.37,0,0,0,250.1,11a2.29,2.29,0,0,0,2.23-2.52,2.2,2.2,0,0,0-2.69-2.24A2.17,2.17,0,0,0,247.54,8.81Z"/><path class="cls-12" d="M236.5,22.11a2.29,2.29,0,0,0-2.34-2.41,2.75,2.75,0,0,0-2.44,2.47,2.4,2.4,0,1,0,4.78-.06Z"/><path class="cls-12" d="M220.68,22a2.31,2.31,0,0,0-2.44-2.31,2.78,2.78,0,0,0-2.35,2.57,2.41,2.41,0,1,0,4.79-.26Z"/><path class="cls-12" d="M252.33,35.92a2.4,2.4,0,1,0-4.79.09,2.3,2.3,0,0,0,2.44,2.3A2.28,2.28,0,0,0,252.33,35.92Z"/><path class="cls-13" d="M236.5,8.61a2.39,2.39,0,0,0-4.78-.1,2.74,2.74,0,0,0,2.7,2.5A2.13,2.13,0,0,0,236.5,8.61Z"/><path class="cls-12" d="M218.37,6.23a2.28,2.28,0,0,0-2.45,2.33,2.73,2.73,0,0,0,2.5,2.45,2.47,2.47,0,0,0,2.45-2.16A2.46,2.46,0,0,0,218.37,6.23Z"/><path class="cls-12" d="M204.84,7.19c-1.39-1.06-2.39-1.24-3.41-.6s-1.35,1.41-.94,3c1.32,1.45,2.1,1.74,3.19,1.21S205.31,8.87,204.84,7.19Z"/><path class="cls-12" d="M234.08,33.55a2.12,2.12,0,0,0-2.36,2.12,2.72,2.72,0,0,0,2.54,2.66,2.14,2.14,0,0,0,2.24-2.47A2.13,2.13,0,0,0,234.08,33.55Z"/><path class="cls-12" d="M249.89,24.75a2.62,2.62,0,0,0,2.43-2.47,2.39,2.39,0,1,0-4.77-.08A2.61,2.61,0,0,0,249.89,24.75Z"/><path class="cls-12" d="M220.68,36.05a2.13,2.13,0,0,0-2.2-2.5,2.26,2.26,0,0,0-2.56,2.21,2.68,2.68,0,0,0,2.58,2.58A2.11,2.11,0,0,0,220.68,36.05Z"/><path class="cls-12" d="M200.14,35.89a2.75,2.75,0,0,0,2.73,2.44,2.63,2.63,0,0,0,2.26-2.6,2.59,2.59,0,0,0-2.69-2.16A2.69,2.69,0,0,0,200.14,35.89Z"/><path class="cls-1" d="M461.86,410.28c-11.76-.46-22.43,9.54-22.5,22.19a22.37,22.37,0,1,0,44.74,0C484,419.32,472.77,409.81,461.86,410.28Z"/></g></svg>