<svg width="1500" height="500" viewBox="0 0 1500 500" fill="none" xmlns="http://www.w3.org/2000/svg">
<g clip-path="url(#clip0_12_223)">
<path d="M1499.1 4.90002H1.88965V503.97H1499.1V4.90002Z" fill="#fff"/>
<path d="M1020.65 1.48999C1020.65 1.48999 1371.63 1.48999 1498.85 1.48999V479.69C1459 439.85 1494.83 404.02 1454.98 364.17C1415.13 324.32 1379.3 360.15 1339.46 320.3C1299.61 280.45 1335.42 244.63 1295.59 204.78C1255.74 164.93 1219.91 200.76 1180.06 160.91C1140.21 121.06 1176.04 85.23 1136.19 45.38C1096.33 5.51999 1060.5 41.35 1020.65 1.48999Z" fill="#5EAD2E"/>
<path d="M417 490.5C443.37 490.5 464.75 469.12 464.75 442.75C464.75 416.38 443.37 395 417 395V490.5Z" fill="#000851"/>
<path d="M492.79 474.32C508.42 474.32 521.09 461.65 521.09 446.02C521.09 430.39 508.42 417.72 492.79 417.72V474.32Z" fill="#3F7720"/>
<path d="M884.86 24.96C884.86 44.04 900.32 59.5 919.4 59.5C938.48 59.5 953.94 44.04 953.94 24.96H884.86Z" fill="#E64F0F"/>
<path d="M1449.17 187.76V210.91H1402.88V187.76C1402.88 174.98 1413.24 164.61 1426.03 164.61C1438.81 164.62 1449.17 174.98 1449.17 187.76Z" fill="#3F7720"/>
<path d="M220.253 455.42H238.949" stroke="#000851" stroke-width="6" stroke-miterlimit="10" stroke-linecap="round" stroke-linejoin="round"/>
<path d="M229.601 446.072V464.768" stroke="#000851" stroke-width="6" stroke-miterlimit="10" stroke-linecap="round" stroke-linejoin="round"/>
<path d="M258.569 446.068L258.562 464.771" stroke="#000851" stroke-width="6" stroke-miterlimit="10" stroke-linecap="round" stroke-linejoin="round"/>
<path d="M267.917 455.416L249.214 455.424" stroke="#000851" stroke-width="6" stroke-miterlimit="10" stroke-linecap="round" stroke-linejoin="round"/>
<path d="M287.529 446.068L287.522 464.771" stroke="#000851" stroke-width="6" stroke-miterlimit="10" stroke-linecap="round" stroke-linejoin="round"/>
<path d="M296.877 455.416L278.174 455.424" stroke="#000851" stroke-width="6" stroke-miterlimit="10" stroke-linecap="round" stroke-linejoin="round"/>
<path d="M1423.07 293.45C1424.7 293.45 1426.02 292.129 1426.02 290.5C1426.02 288.871 1424.7 287.55 1423.07 287.55C1421.44 287.55 1420.12 288.871 1420.12 290.5C1420.12 292.129 1421.44 293.45 1423.07 293.45Z" fill="#3F7720"/>
<path d="M1423.07 320.09C1421.44 320.09 1420.12 318.77 1420.12 317.14C1420.12 315.51 1421.44 314.19 1423.07 314.19C1424.7 314.19 1426.02 315.51 1426.02 317.14C1426.02 318.77 1424.7 320.09 1423.07 320.09Z" fill="#3F7720"/>
<path d="M1423.07 346.73C1421.44 346.73 1420.12 345.41 1420.12 343.78C1420.12 342.15 1421.44 340.83 1423.07 340.83C1424.7 340.83 1426.02 342.15 1426.02 343.78C1426.02 345.41 1424.7 346.73 1423.07 346.73Z" fill="#3F7720"/>
<path d="M1423.07 373.36C1424.7 373.36 1426.02 372.039 1426.02 370.41C1426.02 368.781 1424.7 367.46 1423.07 367.46C1421.44 367.46 1420.12 368.781 1420.12 370.41C1420.12 372.039 1421.44 373.36 1423.07 373.36Z" fill="#3F7720"/>
<path d="M1423.07 400C1421.44 400 1420.12 398.68 1420.12 397.05C1420.12 395.42 1421.44 394.1 1423.07 394.1C1424.7 394.1 1426.02 395.42 1426.02 397.05C1426.02 398.68 1424.7 400 1423.07 400Z" fill="#3F7720"/>
<path d="M1423.07 426.64C1421.44 426.64 1420.12 425.32 1420.12 423.69C1420.12 422.06 1421.44 420.74 1423.07 420.74C1424.7 420.74 1426.02 422.06 1426.02 423.69C1426.02 425.31 1424.7 426.64 1423.07 426.64Z" fill="#3F7720"/>
<path d="M1439.91 293.46C1438.28 293.46 1436.96 292.14 1436.96 290.51C1436.96 288.88 1438.28 287.56 1439.91 287.56C1441.54 287.56 1442.86 288.88 1442.86 290.51C1442.86 292.14 1441.54 293.46 1439.91 293.46Z" fill="#3F7720"/>
<path d="M1439.91 320.09C1438.28 320.09 1436.96 318.77 1436.96 317.14C1436.96 315.51 1438.28 314.19 1439.91 314.19C1441.54 314.19 1442.86 315.51 1442.86 317.14C1442.86 318.77 1441.54 320.09 1439.91 320.09Z" fill="#3F7720"/>
<path d="M1439.91 346.73C1438.28 346.73 1436.96 345.41 1436.96 343.78C1436.96 342.15 1438.28 340.83 1439.91 340.83C1441.54 340.83 1442.86 342.15 1442.86 343.78C1442.86 345.41 1441.54 346.73 1439.91 346.73Z" fill="#3F7720"/>
<path d="M1439.91 373.37C1438.28 373.37 1436.96 372.05 1436.96 370.42C1436.96 368.79 1438.28 367.47 1439.91 367.47C1441.54 367.47 1442.86 368.79 1442.86 370.42C1442.86 372.04 1441.54 373.37 1439.91 373.37Z" fill="#3F7720"/>
<path d="M1439.91 400C1438.28 400 1436.96 398.68 1436.96 397.05C1436.96 395.42 1438.28 394.1 1439.91 394.1C1441.54 394.1 1442.86 395.42 1442.86 397.05C1442.86 398.68 1441.54 400 1439.91 400Z" fill="#3F7720"/>
<path d="M1439.91 426.64C1438.28 426.64 1436.96 425.32 1436.96 423.69C1436.96 422.06 1438.28 420.74 1439.91 420.74C1441.54 420.74 1442.86 422.06 1442.86 423.69C1442.86 425.31 1441.54 426.64 1439.91 426.64Z" fill="#3F7720"/>
<path d="M135 115.62H152.43L142.6 101.56L135 115.62Z" fill="#3F7720"/>
<path d="M135 89.77H152.43L142.6 75.71L135 89.77Z" fill="#3F7720"/>
<path d="M135 63.92H152.43L142.6 49.85L135 63.92Z" fill="#3F7720"/>
<path d="M135 38.07H152.43L142.6 24L135 38.07Z" fill="#3F7720"/>
<path d="M911.15 453.79L927.64 470.28" stroke="#5EAD2E" stroke-width="6" stroke-miterlimit="10" stroke-linecap="round" stroke-linejoin="round"/>
<path d="M927.64 453.79L911.15 470.28" stroke="#5EAD2E" stroke-width="6" stroke-miterlimit="10" stroke-linecap="round" stroke-linejoin="round"/>
<path d="M87.7195 501.47C87.3295 501.47 87.0195 501.16 87.0195 500.77V401.22C87.0195 400.83 87.3395 400.52 87.7195 400.52C88.1095 400.52 88.4195 400.84 88.4195 401.22V500.77C88.4295 501.15 88.1095 501.47 87.7195 501.47Z" fill="#fff" stroke="#ED8D01" stroke-miterlimit="10"/>
<path d="M70.0498 380.65V398.32C70.0498 408.08 77.9598 415.99 87.7198 415.99C97.4798 415.99 105.39 408.08 105.39 398.32V380.65H70.0498Z" fill="#E64F0F"/>
<path opacity="0.3" d="M105.4 380.65H70.0498V388.09H105.4V380.65Z" fill="#ED8D01"/>
<path d="M64 422.75C64 435.85 74.62 446.47 87.72 446.47C87.72 433.37 77.1 422.75 64 422.75Z" fill="#ED8D01"/>
<path d="M64 447.67C64 460.77 74.62 471.39 87.72 471.39C87.72 458.29 77.1 447.67 64 447.67Z" fill="#3F7720"/>
<path d="M111.44 422.75C111.44 435.85 100.82 446.47 87.7197 446.47C87.7197 433.37 98.3397 422.75 111.44 422.75Z" fill="#3F7720"/>
<path d="M111.44 447.67C111.44 460.77 100.82 471.39 87.7197 471.39C87.7197 458.29 98.3397 447.67 111.44 447.67Z" fill="#ED8D01"/>
<path d="M40.84 260.33C40.84 281.34 23.8 298.37 2.79004 298.37V343.77C48.88 343.77 86.25 306.41 86.25 260.33H40.84Z" fill="#4D75E3"/>
<path d="M85.2526 318.079C85.3238 306.26 75.796 296.621 63.9716 296.55C52.1471 296.478 42.5038 306.002 42.4326 317.821C42.3614 329.64 51.8893 339.278 63.7137 339.35C75.5381 339.421 85.1814 329.897 85.2526 318.079Z" fill="#E64F0F"/>
<path d="M389.41 1.21997C386.16 38.21 355.03 67.33 317.21 67.33C279.39 67.33 248.26 38.22 245.01 1.21997H229.06C232.35 46.99 270.61 83.23 317.21 83.23C363.8 83.23 402.07 46.99 405.36 1.21997H389.41Z" fill="#5EAD2E"/>
<path d="M363.14 1.47998C363.14 19.8 343.79 34.66 319.91 34.66C296.03 34.66 276.68 19.8 276.68 1.47998H363.14Z" fill="#3F7720"/>
<path d="M576.26 42.23V0H491.8V42.23C491.8 65.55 510.71 84.46 534.03 84.46C557.35 84.46 576.26 65.55 576.26 42.23Z" fill="#4D75E3"/>
<path d="M70.19 204.29C71.84 204.29 73.17 205.62 73.17 207.27C73.17 208.92 71.84 210.25 70.19 210.25C68.54 210.25 67.21 208.92 67.21 207.27C67.21 205.63 68.55 204.29 70.19 204.29Z" fill="#000851"/>
<path d="M70.19 177.42C71.84 177.42 73.17 178.75 73.17 180.4C73.17 182.05 71.84 183.38 70.19 183.38C68.54 183.38 67.21 182.05 67.21 180.4C67.21 178.76 68.55 177.42 70.19 177.42Z" fill="#000851"/>
<path d="M70.19 150.55C71.84 150.55 73.17 151.88 73.17 153.53C73.17 155.18 71.84 156.51 70.19 156.51C68.54 156.51 67.21 155.18 67.21 153.53C67.21 151.88 68.55 150.55 70.19 150.55Z" fill="#000851"/>
<path d="M70.19 123.68C71.84 123.68 73.17 125.01 73.17 126.66C73.17 128.31 71.84 129.64 70.19 129.64C68.54 129.64 67.21 128.31 67.21 126.66C67.21 125.01 68.55 123.68 70.19 123.68Z" fill="#000851"/>
<path d="M70.19 96.8101C71.84 96.8101 73.17 98.1401 73.17 99.7901C73.17 101.44 71.84 102.77 70.19 102.77C68.54 102.77 67.21 101.44 67.21 99.7901C67.21 98.1401 68.55 96.8101 70.19 96.8101Z" fill="#000851"/>
<path d="M70.19 75.8901C71.8358 75.8901 73.17 74.5559 73.17 72.9101C73.17 71.2642 71.8358 69.9301 70.19 69.9301C68.5442 69.9301 67.21 71.2642 67.21 72.9101C67.21 74.5559 68.5442 75.8901 70.19 75.8901Z" fill="#000851"/>
<path d="M53.1997 204.29C54.8497 204.29 56.1797 205.62 56.1797 207.27C56.1797 208.92 54.8497 210.25 53.1997 210.25C51.5497 210.25 50.2197 208.92 50.2197 207.27C50.2197 205.63 51.5597 204.29 53.1997 204.29Z" fill="#000851"/>
<path d="M53.1997 177.42C54.8497 177.42 56.1797 178.75 56.1797 180.4C56.1797 182.05 54.8497 183.38 53.1997 183.38C51.5497 183.38 50.2197 182.05 50.2197 180.4C50.2197 178.76 51.5597 177.42 53.1997 177.42Z" fill="#000851"/>
<path d="M53.1997 150.55C54.8497 150.55 56.1797 151.88 56.1797 153.53C56.1797 155.18 54.8497 156.51 53.1997 156.51C51.5497 156.51 50.2197 155.18 50.2197 153.53C50.2197 151.88 51.5597 150.55 53.1997 150.55Z" fill="#000851"/>
<path d="M53.1997 123.68C54.8497 123.68 56.1797 125.01 56.1797 126.66C56.1797 128.31 54.8497 129.64 53.1997 129.64C51.5497 129.64 50.2197 128.31 50.2197 126.66C50.2197 125.01 51.5597 123.68 53.1997 123.68Z" fill="#000851"/>
<path d="M53.1997 96.8101C54.8497 96.8101 56.1797 98.1401 56.1797 99.7901C56.1797 101.44 54.8497 102.77 53.1997 102.77C51.5497 102.77 50.2197 101.44 50.2197 99.7901C50.2197 98.1401 51.5597 96.8101 53.1997 96.8101Z" fill="#000851"/>
<path d="M53.1997 75.8901C54.8455 75.8901 56.1797 74.5559 56.1797 72.9101C56.1797 71.2642 54.8455 69.9301 53.1997 69.9301C51.5539 69.9301 50.2197 71.2642 50.2197 72.9101C50.2197 74.5559 51.5539 75.8901 53.1997 75.8901Z" fill="#000851"/>
<path d="M104.709 204.29C106.359 204.29 107.689 205.62 107.689 207.27C107.689 208.92 106.359 210.25 104.709 210.25C103.059 210.25 101.729 208.92 101.729 207.27C101.729 205.63 103.059 204.29 104.709 204.29Z" fill="#000851"/>
<path d="M104.709 177.42C106.359 177.42 107.689 178.75 107.689 180.4C107.689 182.05 106.359 183.38 104.709 183.38C103.059 183.38 101.729 182.05 101.729 180.4C101.729 178.76 103.059 177.42 104.709 177.42Z" fill="#000851"/>
<path d="M104.709 150.55C106.359 150.55 107.689 151.88 107.689 153.53C107.689 155.18 106.359 156.51 104.709 156.51C103.059 156.51 101.729 155.18 101.729 153.53C101.729 151.88 103.059 150.55 104.709 150.55Z" fill="#000851"/>
<path d="M104.709 123.68C106.359 123.68 107.689 125.01 107.689 126.66C107.689 128.31 106.359 129.64 104.709 129.64C103.059 129.64 101.729 128.31 101.729 126.66C101.729 125.01 103.059 123.68 104.709 123.68Z" fill="#000851"/>
<path d="M104.709 96.8101C106.359 96.8101 107.689 98.1401 107.689 99.7901C107.689 101.44 106.359 102.77 104.709 102.77C103.059 102.77 101.729 101.44 101.729 99.7901C101.729 98.1401 103.059 96.8101 104.709 96.8101Z" fill="#000851"/>
<path d="M104.709 75.8901C106.355 75.8901 107.689 74.5559 107.689 72.9101C107.689 71.2642 106.355 69.9301 104.709 69.9301C103.064 69.9301 101.729 71.2642 101.729 72.9101C101.729 74.5559 103.064 75.8901 104.709 75.8901Z" fill="#000851"/>
<path d="M87.7193 204.29C89.3693 204.29 90.6993 205.62 90.6993 207.27C90.6993 208.92 89.3693 210.25 87.7193 210.25C86.0693 210.25 84.7393 208.92 84.7393 207.27C84.7393 205.63 86.0793 204.29 87.7193 204.29Z" fill="#000851"/>
<path d="M87.7193 177.42C89.3693 177.42 90.6993 178.75 90.6993 180.4C90.6993 182.05 89.3693 183.38 87.7193 183.38C86.0693 183.38 84.7393 182.05 84.7393 180.4C84.7393 178.76 86.0793 177.42 87.7193 177.42Z" fill="#000851"/>
<path d="M87.7193 150.55C89.3693 150.55 90.6993 151.88 90.6993 153.53C90.6993 155.18 89.3693 156.51 87.7193 156.51C86.0693 156.51 84.7393 155.18 84.7393 153.53C84.7393 151.88 86.0793 150.55 87.7193 150.55Z" fill="#000851"/>
<path d="M87.7193 123.68C89.3693 123.68 90.6993 125.01 90.6993 126.66C90.6993 128.31 89.3693 129.64 87.7193 129.64C86.0693 129.64 84.7393 128.31 84.7393 126.66C84.7393 125.01 86.0793 123.68 87.7193 123.68Z" fill="#000851"/>
<path d="M87.7193 96.8101C89.3693 96.8101 90.6993 98.1401 90.6993 99.7901C90.6993 101.44 89.3693 102.77 87.7193 102.77C86.0693 102.77 84.7393 101.44 84.7393 99.7901C84.7393 98.1401 86.0793 96.8101 87.7193 96.8101Z" fill="#000851"/>
<path d="M87.7193 69.9301C89.3693 69.9301 90.6993 71.2601 90.6993 72.9101C90.6993 74.5601 89.3693 75.8901 87.7193 75.8901C86.0693 75.8901 84.7393 74.5601 84.7393 72.9101C84.7393 71.2701 86.0793 69.9301 87.7193 69.9301Z" fill="#000851"/>
<path d="M659.12 95.71H683.68V109.81H659.12V134.37H645.02V109.81H620.46V95.71H645.02V71.15H659.12V95.71ZM646.6 97.3H622.04V108.24H646.6V132.8H657.54V108.24H682.1V97.3H657.54V72.74H646.6V97.3Z" fill="#ED8D01"/>
<path d="M805.872 503.76C812.987 472.835 793.685 441.997 762.76 434.883C731.835 427.768 700.997 447.07 693.883 477.995C686.768 508.92 706.07 539.757 736.995 546.872C767.92 553.987 798.757 534.685 805.872 503.76Z" fill="#5EAD2E"/>
<path d="M1205.23 471.49C1231.63 471.49 1253.04 450.09 1253.04 423.68C1253.04 397.28 1231.64 375.87 1205.23 375.87V471.49Z" fill="#3F7720"/>
<path d="M830.6 1.84998H717.72V108.17C717.72 139.34 742.99 164.61 774.16 164.61C805.33 164.61 830.6 139.34 830.6 108.17V1.84998Z" fill="#000851"/>
<path d="M814.32 102.52L817.35 108.82C820.13 114.59 824.78 119.24 830.55 122.02L836.85 125.05L830.55 128.08C824.78 130.86 820.12 135.51 817.35 141.28L814.32 147.58L811.29 141.28C808.51 135.51 803.86 130.86 798.09 128.08L791.79 125.05L798.09 122.02C803.86 119.24 808.52 114.59 811.29 108.82L814.32 102.52Z" fill="#F8C10C"/>
<path d="M814.32 153.52L817.35 159.82C820.13 165.59 824.78 170.24 830.55 173.02L836.85 176.05L830.55 179.08C824.78 181.86 820.12 186.51 817.35 192.28L814.32 198.58L811.29 192.28C808.51 186.51 803.86 181.86 798.09 179.08L791.79 176.05L798.09 173.02C803.86 170.24 808.52 165.59 811.29 159.82L814.32 153.52Z" fill="#E64F0F"/>
<path d="M1008.24 396.73L1004.22 405.09C1000.53 412.75 994.35 418.93 986.69 422.61L978.33 426.63L986.69 430.65C994.35 434.34 1000.53 440.52 1004.22 448.17L1008.24 456.53L1012.26 448.17C1015.95 440.51 1022.13 434.33 1029.79 430.65L1038.15 426.63L1029.79 422.61C1022.13 418.92 1015.95 412.74 1012.26 405.09L1008.24 396.73Z" fill="#E64F0F"/>
<path d="M576.26 126.61L572.24 134.97C568.55 142.63 562.37 148.81 554.71 152.49L546.35 156.51L554.71 160.53C562.37 164.22 568.55 170.4 572.24 178.05L576.26 186.41L580.28 178.05C583.97 170.39 590.15 164.21 597.81 160.53L606.17 156.51L597.81 152.49C590.15 148.8 583.97 142.62 580.28 134.97L576.26 126.61Z" fill="#ED8D01"/>
<path d="M1383.36 80.9202L1360.7 80.9202" stroke="white" stroke-width="6" stroke-miterlimit="10" stroke-linecap="round" stroke-linejoin="round"/>
<path d="M1372.03 92.248L1372.03 69.5923" stroke="white" stroke-width="6" stroke-miterlimit="10" stroke-linecap="round" stroke-linejoin="round"/>
<path d="M1372.03 104.672L1372.03 127.328" stroke="white" stroke-width="6" stroke-miterlimit="10" stroke-linecap="round" stroke-linejoin="round"/>
<path d="M1383.36 116L1360.7 116" stroke="white" stroke-width="6" stroke-miterlimit="10" stroke-linecap="round" stroke-linejoin="round"/>
<path d="M1372.03 139.742L1372.03 162.398" stroke="white" stroke-width="6" stroke-miterlimit="10" stroke-linecap="round" stroke-linejoin="round"/>
<path d="M1383.36 151.07L1360.7 151.07" stroke="white" stroke-width="6" stroke-miterlimit="10" stroke-linecap="round" stroke-linejoin="round"/>
<path d="M766 347C766 349.852 766 500 766 500" stroke="#33707A" stroke-miterlimit="10" stroke-linecap="round" stroke-linejoin="round"/>
<path d="M798 406C784.554 418.948 777 436.509 777 454.812V500" stroke="#33707A" stroke-miterlimit="10" stroke-linecap="round" stroke-linejoin="round"/>
<path d="M766 372C770.971 372 775 367.931 775 362.911V317.089C775 312.069 770.971 308 766 308C761.029 308 757 312.069 757 317.089V362.911C757 367.931 761.029 372 766 372Z" fill="#F8C10C"/>
<path d="M790.631 412.369C794.138 415.877 799.829 415.877 803.336 412.369L835.369 380.336C838.877 376.829 838.877 371.138 835.369 367.631C831.862 364.123 826.171 364.123 822.664 367.631L790.631 399.664C787.123 403.18 787.123 408.862 790.631 412.369Z" fill="#E64F0F"/>
<path d="M1296.35 359.83C1324.92 359.83 1348.09 336.67 1348.09 308.09C1348.09 279.52 1324.93 256.35 1296.35 256.35V359.83Z" fill="#000851"/>
</g>
<defs>
<clipPath id="clip0_12_223">
<rect width="1500" height="500" fill="white"/>
</clipPath>
</defs>
</svg>
