<svg xmlns="http://www.w3.org/2000/svg" viewBox="0 0 4609.29 4073.14"><defs><style>.cls-1{isolation:isolate;}.cls-2{fill:#dcebf2;}.cls-3{fill:#a15c56;}.cls-4{fill:#d37a05;}.cls-5{fill:#000851;}.cls-6{fill:#eaad29;}.cls-7{fill:#14237c;}.cls-8{fill:#b36d63;}.cls-9{fill:#f8c10c;}.cls-10,.cls-36,.cls-40,.cls-46{fill:#fff;}.cls-11{fill:#a05750;}.cls-12,.cls-37{fill:#1c1c1c;}.cls-13{fill:#ed8d01;}.cls-14{fill:#fdfcfc;}.cls-15{fill:#a95958;}.cls-16{fill:#cc3500;}.cls-17{fill:#bb706e;}.cls-18{fill:#e64f0f;}.cls-19{fill:#6f6eea;}.cls-20{fill:#4eb8e4;}.cls-21{fill:#46a8c6;}.cls-22{fill:#d3d5fc;}.cls-23{fill:#ebb34a;}.cls-24{fill:#d98b29;}.cls-25{fill:#fbf4d6;}.cls-26{fill:#f5e6b6;}.cls-27{fill:#d59632;}.cls-28{fill:#dc3b82;}.cls-29{fill:#f6f3f3;opacity:0.15;}.cls-30{fill:#cd2a74;}.cls-31{fill:#406017;}.cls-32{fill:#67b52d;}.cls-33{fill:#487e1f;}.cls-34{fill:#313362;}.cls-35{fill:#ad001e;}.cls-36{opacity:0.27;}.cls-37,.cls-47{mix-blend-mode:overlay;}.cls-38{fill:none;}.cls-39{fill:#8b8bfa;}.cls-40{opacity:0.55;}.cls-41{fill:#d19926;}.cls-42{fill:#edba3b;}.cls-43{fill:#2b337c;}.cls-44{fill:#b6b6fc;}.cls-45{fill:#6cbf49;}.cls-46{opacity:0.21;}.cls-47{fill:#575757;}.cls-48{fill:#212a5f;}.cls-49{fill:#3844e6;}.cls-50{fill:#1928e3;}.cls-51{fill:#4551e7;}.cls-52{fill:#4d58e5;}.cls-53{fill:#2a37d9;}.cls-54{fill:#0a139f;}.cls-55{fill:#1825d1;}</style></defs><title>ilustracao</title><g class="cls-1"><g id="Layer_5" data-name="Layer 5"><path class="cls-2" d="M3722.67,573.37a363.88,363.88,0,0,0-99-95.51c-213.72-138.8-504.71-122.91-693.93,47.3-90.48,81.39-149.66,189.42-231.23,278.55-153.31,167.54-358.22,332-594.81,359.71-223.4,26.16-446.53-21.48-669.91,4.8-193.7,22.79-422.67,68.48-575,194.47C752,1451,686.39,1580.13,657.05,1713.72c-46.83,213.25-43.39,473.77,118.54,641.11C908.7,2492.39,1109,2552.92,1297.2,2570c209.47,19,423.31-1.53,620.69-74.46C2095,2430,2269.9,2342,2457.53,2309.1c364.53-64,650.43,108.26,978.51,227.87,141.41,51.55,292.77,87,442.72,70.51,94-10.32,190.32-44.33,249.46-116.36,103.9-126.55,64.29-311.87-7.73-443.63-83.52-152.79-225.63-261.84-309.52-414-72.36-131.22-101-285-79.4-432.48,22.39-152.53,87.78-303.63,60-459.86C3780.9,681.42,3758.06,623.4,3722.67,573.37Z"/><path class="cls-3" d="M2206.41,1818.85a5.56,5.56,0,0,0-2.26-1.29l-3.31-.74-8.71-2-12.35-2.78-14.22-3.2-14.29-3.22-12.61-2.84-9.15-2.06-5.36-1.22a2.61,2.61,0,0,1-1-.41c-.5-.42-.34-1.11-.19-1.66.49-1.87,1.88-1.68,3.8-1.47l66.94,3.45c6.12.66,12-5.67,12.07-12,.05-5.49-2.07-12.44-7.52-13-17.86-.78-38.86-2.34-56.71-3.37a168.55,168.55,0,0,1-22.39-2.72c-3.73-.73-7.44-1.61-11.1-2.66-2.81-.81-6.25-1.73-7.51-4.69-1.5-3.53.87-7.3,3.42-9.63s6.12-3.23,9.56-3.77c2.66-.42,5.32-1,8-1.55l16.78-3.25,5.71-1.1a10.2,10.2,0,0,0,8.09-11.92l-.05-.26a10.55,10.55,0,0,0-12.34-8.48c-30.86,5.88-119.85,22.75-119.85,22.75-6.48,1.2-9.33,1.94-12.33,7.37,0,0-3.8-1.19-10.66-3.31L1981,1829.65l14.57.91c4.88,13.3,15.15,17.55,31,22.57,0,0,31.06,11.71,41.8,15,29.81,9.1,86,33.13,86,33.13a10.59,10.59,0,0,0,13-7.16l.42-1.32c1.68-5.61-1.62-13.07-7.23-14.74l-5.61-2.46-13.18-5.75-15.31-6.69c-3.8-1.66-7.57-3.35-11.37-5-1.77-.75-3.59-1.4-5.33-2.21-1.23-.58-2.18-1.53-1.69-3,.63-1.85,2.06-2,3.94-1.42L2178,1875c5.9,1.76,13.77-4.41,15-10.61,1.05-5.39-2.84-13.34-8.1-14.92l-66-21.74c-2-.59-3.53-1.34-3-3.36s2.24-1.56,4.31-1l78.74,18.18c5.08,1.38,9.32-2.69,11.16-7A13.63,13.63,0,0,0,2206.41,1818.85Z"/><path class="cls-4" d="M1621.76,1633.82l-51.13-141.77-.21.09-4.7-13c-.91-1.81-5.72-15.13-5.72-15.13l-97.89-271.45c-31.22-57-100.94-85.47-160.39-59.29a123.19,123.19,0,0,0-58.72,172.1L1376.53,1558l-1.6.66,7.54,14.26.23-.1,45.1,85.33a346,346,0,0,0,77.77,96,217.92,217.92,0,0,0,127.2,51.87L1987,1831.19l9.87-83.35C1936.05,1729,1621.82,1633.93,1621.76,1633.82Z"/><path class="cls-5" d="M1052.53,2021.84c-6.21,17.92-59.65,188.5,60.69,434.94.1.21,14.38.74,14.42,1,0,0,66.49,467.54,66.92,474.18l9.06,160.8c.09,1.42,189.56,5.37,189.56,5.37,76.72-435,128.65-635.7,113.34-1104.73a2.57,2.57,0,0,0-2.75-2.47l-449,29.27A2.52,2.52,0,0,0,1052.53,2021.84Z"/><path class="cls-6" d="M1522.32,2132.19l-1.83,27.17c-233.27,62.65-397.66,1.64-517.92-25.06l2.68-26.82C1127.13,2135.82,1291.92,2192.48,1522.32,2132.19Z"/><path class="cls-7" d="M1051.28,2001.63c-7.38,17.51-89,98.4,15.06,352.11.09.22,67.47,558.63,67.47,565.28l14.34,172.31c0,1.43,184.54,6.77,184.54,6.77,61.31-445.29,78-618,173.55-1098H1053.63A2.49,2.49,0,0,0,1051.28,2001.63Z"/><polygon class="cls-8" points="1422.07 985.21 1254.29 824.34 1207.69 836.74 1193.03 1085.53 1371.62 1155.65 1383.79 1053.05 1422.07 985.21"/><path class="cls-9" d="M1520.85,2159.36,1552,1698.51c8.13-120.46-6.06-241.75-45.24-356-45.77-133.42-118.16-234.82-263.14-269.82-62.39-15.07-123.26,20.89-147.92,77.15-52.88,120.69-44.12,329.35-44.12,496l-48.62,488.41C1123.2,2161,1287.58,2222,1520.85,2159.36Z"/><path class="cls-10" d="M1176.68,1072l9.45-30.15,198,84.28v7.34a23.62,23.62,0,0,1-33.79,21.32Z"/><path class="cls-7" d="M1035.38,2142c108.33,26.61,249.75,67.86,439.22,28.38q14.67-3.06,29.76-6.8-.69,15.06-1.54,30.46c-11.39,2.8-22.59,5.27-33.65,7.49-186.4,37.51-326-3-433.23-29.32q-10.35-2.55-20.3-4.89c-1-10.78-1.61-21-1.74-30.48Q1024.4,2139.26,1035.38,2142Z"/><path class="cls-8" d="M1486.75,805.15l48.39,73.36a5.93,5.93,0,0,1-5.1,9h-55.12Z"/><path class="cls-11" d="M1381.87,1069.3s-110.53,22.17-132.29-99.59l143.21,67.4Z"/><path class="cls-8" d="M1341.58,604.63A146.86,146.86,0,0,1,1488.44,751.5V934.08A108.89,108.89,0,0,1,1379.55,1043h0a152.28,152.28,0,0,1-152.27-152.28V604.63Z"/><path class="cls-12" d="M1484.31,685.43a10.64,10.64,0,0,0-3,.47c0-.18,0-.36-.06-.53a10.68,10.68,0,0,0-.64-21.35,10.55,10.55,0,0,0-3.91.76,1.52,1.52,0,0,1-.06-.2,10.7,10.7,0,0,0-2.36-21.13c-.24,0-.46,0-.69.07a10.84,10.84,0,0,0,1.81-3,10.68,10.68,0,0,0-14.76-13.44,10.66,10.66,0,0,0-17.14-11.7,10.59,10.59,0,0,0-10.29-13.51,10.65,10.65,0,0,0-5.53,1.58c0-.13,0-.26,0-.39a10.68,10.68,0,0,0-18.52-7.28,10.67,10.67,0,0,0-20.08-2.43s0-.07,0-.1a10.69,10.69,0,0,0-20.38-4.52,10.67,10.67,0,0,0-20.38-4,10.68,10.68,0,0,0-20.8.14,10.68,10.68,0,0,0-20.95.61,10.67,10.67,0,0,0-20.7,3.5,10.69,10.69,0,1,0-19,9.78l-.61.2a10.67,10.67,0,1,0-20.78,4.13,10.65,10.65,0,0,0-17.8,10.71,10.7,10.7,0,0,0-17.46,11.73,10.66,10.66,0,0,0-17.23,8.43,10.45,10.45,0,0,0,.49,3,10.66,10.66,0,0,0-13.31,16.32A10.66,10.66,0,0,0,1168,670.66c-.14.21-.3.42-.44.62a10.5,10.5,0,0,0-3.18-.54,10.71,10.71,0,0,0-7.54,18.31l0,.1a10.68,10.68,0,1,0-8.58,19.55l-.09.24a10.59,10.59,0,0,0-4.76-1.16,10.7,10.7,0,0,0-5.91,19.62,10.87,10.87,0,0,0-3.88.56,10.68,10.68,0,0,0,2.34,20.72,1.89,1.89,0,0,0,0,.23,10.52,10.52,0,0,0-4.12.57,10.69,10.69,0,0,0,.56,20.38c0,.2,0,.4-.07.6a10.65,10.65,0,0,0-1.43,21.14,2.26,2.26,0,0,0,0,.26,10.5,10.5,0,0,0-3.56.55,10.7,10.7,0,0,0,.66,20.42,10.66,10.66,0,0,0,4.42,20.21,10.65,10.65,0,0,0,7.06,19.93c0,.18.11.35.16.52a11.46,11.46,0,0,0-1.59.38,10.71,10.71,0,1,0,8.87,19.37l0,.09a10.68,10.68,0,0,0,8.54,19.46,10.69,10.69,0,0,0,11,17.73,10.26,10.26,0,0,0,1-.44l.32.45a10.68,10.68,0,0,0,11.6,17.93,10.68,10.68,0,0,0,11.07,17.65,10.53,10.53,0,0,0,5.18-3.9l.28.24c42-14,71.06-102.64,71.06-102.64h23.57c-3.85-81,23.09-131.56,23.09-131.56,63.49,21.73,168.4,0,168.4,0,0-.56,0-1.1.06-1.66a10.7,10.7,0,1,0,2.29-21.16Zm-197.5-91.76a1.11,1.11,0,0,0,0-.19,1.4,1.4,0,0,1,.09.17Z"/><path class="cls-8" d="M1209.08,820a34.17,34.17,0,0,1,48.33.83c13.11,13.57,20.67,41,7.1,54.1s-43.15,7-56.26-6.6A34.17,34.17,0,0,1,1209.08,820Z"/><path class="cls-12" d="M1435.28,806.12a9.76,9.76,0,1,0,9.75-9.76A9.75,9.75,0,0,0,1435.28,806.12Z"/><polygon class="cls-12" points="1378.19 788.02 1411.22 781 1464.58 774.85 1464.79 757.04 1402.49 767.28 1378.19 788.02"/><path class="cls-11" d="M1422.64,876a38.65,38.65,0,1,1-41.42-35.67A38.65,38.65,0,0,1,1422.64,876Z"/><path class="cls-13" d="M1477.4,1641.51l-154.48-428.36c-31.23-57-100.94-85.46-160.4-59.29a123.2,123.2,0,0,0-58.71,172.1l179.63,339.87a345.79,345.79,0,0,0,77.77,96,218,218,0,0,0,127.2,51.88l349.45,25,12-85.62C1796.54,1736.57,1477.46,1641.62,1477.4,1641.51Z"/><path class="cls-8" d="M2067.48,1826.92a6,6,0,0,0-2.38-1.35l-3.48-.78-9.16-2.07-13-2.92-15-3.37-15-3.38-13.25-3-9.62-2.16-5.63-1.29a2.61,2.61,0,0,1-1.08-.43c-.53-.44-.35-1.17-.2-1.75.52-2,2-1.76,4-1.54l70.38,3.62c6.43.7,12.64-6,12.69-12.59.05-5.77-2.18-13.07-7.92-13.69-18.77-.82-40.84-2.47-59.61-3.55a175.71,175.71,0,0,1-23.54-2.86c-3.93-.77-7.83-1.69-11.67-2.8-3-.85-6.57-1.81-7.9-4.93-1.58-3.71.91-7.68,3.6-10.12s6.44-3.4,10-4c2.79-.44,5.59-1.1,8.37-1.63l17.65-3.42,6-1.16a10.73,10.73,0,0,0,8.51-12.53l-.06-.27a11.09,11.09,0,0,0-13-8.92c-32.45,6.18-126,23.92-126,23.92-6.82,1.27-9.81,2-13,7.74l-8.46-2.62-15.53,85.4,11.47.71c5.12,14,15.92,18.46,32.64,23.74,0,0,32.65,12.31,44,15.76,31.33,9.56,90.44,34.83,90.44,34.83a11.13,11.13,0,0,0,13.67-7.53l.44-1.39c1.76-5.89-1.71-13.74-7.6-15.5l-5.9-2.58-13.86-6-16.1-7c-4-1.74-8-3.52-12-5.23-1.85-.8-3.77-1.48-5.6-2.33-1.3-.61-2.29-1.61-1.77-3.13.66-2,2.16-2.08,4.14-1.49l69.33,24.65c6.2,1.85,14.48-4.64,15.73-11.16,1.1-5.67-3-14-8.52-15.68l-69.39-22.85c-2.11-.63-3.71-1.42-3.14-3.54s2.34-1.64,4.52-1l82.79,19.12c5.34,1.44,9.8-2.83,11.73-7.42A14.36,14.36,0,0,0,2067.48,1826.92Z"/><path class="cls-14" d="M1488.44,917.52h-71.18s21,32.06,70.56,29C1487.82,946.5,1490.54,935.09,1488.44,917.52Z"/><path class="cls-11" d="M1451.6,975.3c-.91.52,18.12,2.39,27.42,3.16l2-4.89C1476.88,969.71,1467.55,966.19,1451.6,975.3Z"/><path class="cls-4" d="M1488.62,1813.65a218,218,0,0,1-127.21-51.87,346.19,346.19,0,0,1-77.77-96L1104,1325.9a122.52,122.52,0,0,1-13.65-40.73,122.45,122.45,0,0,0,13.65,77.62l179.63,339.87a346.3,346.3,0,0,0,77.77,96,218,218,0,0,0,127.21,51.87l53.07,3.31,2.48-36.73Z"/><path class="cls-15" d="M3035.41,1619.27c-.06.12-350,108.34-357.33,111.07a557.36,557.36,0,0,1-88.21-3.12q-21.24-2.37-42.35-5.83c-8.32-1.35-24.34-7.28-30.8-.35-4.71,5.06-4.44,15.11,1.38,19.3,5.13,3.7,12,3.61,17.73,5.56,10.31,3.48,20,8.59,29.51,13.93,5.34,3,14.29,9,9.85,16.17-3.83,6.21-11.56,10.64-17.77,14a78.22,78.22,0,0,1-25.55,8.22c-21.56,3.41-44.5,1-65.64-4.47a26.18,26.18,0,0,0-15.83.82c-3.71,1.46-7,4.52-7.72,8.51-.64,3.69,1,7.3,2.91,10.38,9.18,15,27.36,24.11,42.67,31a223.82,223.82,0,0,0,30.51,11.38c31.79,4,64.16-6.63,92.6-19.93,18.78-8.77,48.82-18.81,78.66-28.19l334.24-16.3a217.88,217.88,0,0,0,127.24-51.77,346.21,346.21,0,0,0,77.85-96l45.24-85.44-187.95-80.77Z"/><path class="cls-16" d="M3350.25,1131.49c-59.46-26.17-129.17,2.33-160.39,59.29l-103.35,286.58,188,80.63L3409,1303.59A123.2,123.2,0,0,0,3350.25,1131.49Z"/><polygon class="cls-11" points="3081.49 1490.54 3269.5 1571.16 3277.03 1556.91 3086.24 1477.36 3081.49 1490.54"/><path class="cls-5" d="M3599.44,2020.1c6.2,17.92,59.65,188.5-60.69,434.94-.11.21-14.38.73-14.42,1,0,0-66.49,467.54-66.92,474.18l-9.06,160.8c-.09,1.42-189.56,5.38-189.56,5.38-76.72-435-128.65-635.71-113.34-1104.74a2.55,2.55,0,0,1,2.75-2.46l449,29.27A2.49,2.49,0,0,1,3599.44,2020.1Z"/><path class="cls-6" d="M3129.65,2130.44l1.83,27.17c233.27,62.65,397.66,1.64,517.91-25.06l-2.67-26.82C3524.83,2134.08,3360.05,2190.73,3129.65,2130.44Z"/><path class="cls-7" d="M3600.69,1999.89c7.38,17.5,89,98.39-15.06,352.1-.09.22-67.47,558.63-67.47,565.28l-14.35,172.32c0,1.42-184.53,6.77-184.53,6.77-61.31-445.29-78-618-173.56-1098h452.62A2.49,2.49,0,0,1,3600.69,1999.89Z"/><polygon class="cls-17" points="3229.9 983.46 3397.67 822.59 3444.28 834.99 3458.93 1083.79 3280.35 1153.9 3268.18 1051.3 3229.9 983.46"/><path class="cls-18" d="M3131.12,2157.61,3100,1696.76c-8.13-120.46,6.06-241.75,45.24-356C3191,1207.39,3263.39,1106,3408.37,1071c62.39-15.06,123.26,20.89,147.92,77.16,52.88,120.68,44.11,329.35,44.11,496L3649,2132.55C3528.77,2159.25,3364.39,2220.26,3131.12,2157.61Z"/><polygon class="cls-10" points="3267.87 1124.33 3267.87 1169.11 3475.29 1070.2 3465.84 1040.05 3267.87 1124.33"/><path class="cls-16" d="M3482.9,1076.29a124.16,124.16,0,0,0-12.32-4.21l-202.81,96.71v-27.57c-.85.73-1.67,1.49-2.51,2.23v36.61Z"/><path class="cls-7" d="M3616.59,2140.23c-108.33,26.61-249.75,67.86-439.22,28.38q-14.68-3.06-29.76-6.8.69,15.06,1.54,30.47c11.39,2.79,22.59,5.26,33.64,7.48,186.41,37.51,326-3,433.24-29.32q10.35-2.54,20.3-4.89c1-10.78,1.61-21,1.74-30.48C3631.06,2136.7,3623.89,2138.44,3616.59,2140.23Z"/><rect class="cls-19" x="2089.83" y="1341.93" width="743.68" height="36.03"/><path class="cls-17" d="M3174.57,1639.76c-.07.12-349.92,108.6-357.25,111.34a556.06,556.06,0,0,1-88.21-3.06q-21.24-2.36-42.35-5.8c-8.33-1.34-24.36-7.26-30.8-.32-4.71,5.06-4.44,15.11,1.38,19.3,5.14,3.7,12,3.6,17.74,5.54,10.31,3.47,20,8.58,29.52,13.91,5.34,3,14.3,9,9.87,16.16-3.83,6.22-11.55,10.66-17.76,14.06a78.72,78.72,0,0,1-25.55,8.23c-21.56,3.42-44.49,1.08-65.64-4.43a26.26,26.26,0,0,0-15.83.84c-3.71,1.46-7,4.52-7.72,8.52-.63,3.68,1,7.29,2.93,10.37,9.18,15,27.37,24.09,42.68,31a224,224,0,0,0,30.53,11.36c31.79,4,64.15-6.68,92.58-20,18.77-8.79,48.8-18.84,78.64-28.25L3163.56,1812a217.92,217.92,0,0,0,127.2-51.87,346,346,0,0,0,77.77-96l45.18-85.47-188-80.63Z"/><path class="cls-16" d="M3489.44,1152.11c-59.45-26.17-129.17,2.33-160.39,59.3L3225.7,1498l188,80.63,134.45-254.4A123.2,123.2,0,0,0,3489.44,1152.11Z"/><polygon class="cls-10" points="3225.7 1497.98 3413.71 1578.61 3426.01 1555.32 3233.37 1476.72 3225.7 1497.98"/><polygon class="cls-8" points="3220.69 1511.16 3408.7 1591.78 3416.23 1577.53 3225.44 1497.98 3220.69 1511.16"/><path class="cls-10" d="M3086.24,1477.36c.92-1.81,5.72-15.13,5.72-15.13l20.14,6.53-2.58,18.89Z"/><path class="cls-17" d="M3165.21,803.4l-48.38,73.36a5.93,5.93,0,0,0,5.1,9H3177Z"/><path class="cls-11" d="M3270.1,1067.55s110.53,22.17,132.29-99.58l-143.21,67.39Z"/><path class="cls-17" d="M3310.39,602.89a146.87,146.87,0,0,0-146.87,146.86V932.33a108.89,108.89,0,0,0,108.89,108.89h0A152.27,152.27,0,0,0,3424.69,889V602.89Z"/><path class="cls-12" d="M3171.73,677s-22.47,80.79,183.92,74.33c1.07,27.49,11.61,68.27,60.84,88.19l12,83.46a37.69,37.69,0,0,0,37.3,32.33h12.63l10-176a46.34,46.34,0,0,0-36.78-48Z"/><path class="cls-17" d="M3447.72,820.68a34.17,34.17,0,0,0-48.33.83c-13.11,13.57-20.67,41-7.1,54.09s43.15,7,56.26-6.6A34.17,34.17,0,0,0,3447.72,820.68Z"/><path class="cls-20" d="M3056.61,668.11a12.67,12.67,0,0,1,14.95-9.87l73.75,15.11c14.43-70.42,85.22-124.71,155.67-110.28l101.72,20.82c70.44,14.43,111.79,91.68,97.36,162.09l-5.08,24.8-428.5-87.73A12.66,12.66,0,0,1,3056.61,668.11Z"/><path class="cls-21" d="M3351.26,583.86l-98.87-20.24A116.72,116.72,0,0,1,3301,563l101.72,20.82c70.44,14.43,111.79,91.68,97.36,162.09L3495,770.76l-49.37-10.11,3-14.7C3463.05,675.54,3421.7,598.29,3351.26,583.86Z"/><path class="cls-10" d="M3227.54,623.25A42.37,42.37,0,0,1,3152.22,650a146.85,146.85,0,0,1,51.47-64.79A42.37,42.37,0,0,1,3227.54,623.25Z"/><circle class="cls-12" cx="3206.93" cy="804.38" r="9.76"/><polygon class="cls-12" points="3273.78 786.27 3240.74 779.25 3187.39 773.1 3187.18 755.29 3249.48 765.53 3273.78 786.27"/><path class="cls-11" d="M3229.33,874.24a38.65,38.65,0,1,0,41.42-35.66A38.64,38.64,0,0,0,3229.33,874.24Z"/><path class="cls-11" d="M3166.93,952h-1.63l-1.08-7.35c.3,0,2.4.18,2.71.18,69,0,86.06-55.9,86.23-56.47l6.87,2C3259.86,891,3241.18,952,3166.93,952Z"/><path class="cls-16" d="M3299.65,1786.91a346.19,346.19,0,0,0,77.77-96l38.57-73,1.59.68,7.54-14.25-1.6-.66,11.38-21.54L3557.05,1351a123,123,0,0,0,3.53-111.32,122.52,122.52,0,0,1-12.44,84.53L3426,1555.36l-11.39,21.54,1.6.67-7.53,14.25-1.59-.68-38.58,73a345.79,345.79,0,0,1-77.77,96,217.9,217.9,0,0,1-127.2,51.88l-55.6,2.75,1.83,27.14,62.67-3.11A218,218,0,0,0,3299.65,1786.91Z"/><ellipse class="cls-22" cx="2309.11" cy="3404.44" rx="1863.04" ry="149.05"/><path class="cls-23" d="M2102.85,2931.27c83.27-16.85,60.39-174.3,38.83-268.34-2.3-10-4.55-20-6.83-30-66.75,27.56-114.42,24.7-114.42,24.7,27.41-27.7,96.93-50.22,107.84-53.63q-9.24-40.89-18.32-81.79c-85.25,40.11-143.29,29.69-143.29,29.69,36.49-41,120.06-70.5,132.27-74.65a687.21,687.21,0,0,0-24.62-75.11c-53,22-90.94,19.76-90.94,19.76,22-22.26,75.3-38.7,81.94-40.69-25.44-55.08-60.11-96.35-105.62-85,0,0-98.21,12.94-19.41,338.08C2008.59,2961.71,2102.85,2931.27,2102.85,2931.27Z"/><path class="cls-24" d="M2074.31,2402.09l-1.16-2.88-4.74-7.08-1.72-8c-.45-1-.91-2-1.38-3-6.64,2-59.91,18.43-81.94,40.69C1983.37,2421.85,2021.3,2424.12,2074.31,2402.09Z"/><path class="cls-24" d="M2134.85,2632.88l-1-4.46-5.67-8.49,1.12-11.51c-.33-1.49-.68-3-1-4.47-10.91,3.41-80.43,25.93-107.84,53.63C2020.43,2657.58,2068.1,2660.44,2134.85,2632.88Z"/><path class="cls-24" d="M2110,2522.16c0-.1,0-.2-.07-.3-.27-1.21-.54-2.44-.82-3.67l-11.36-18.25,2.26-18.89c-.34-1.28-.68-2.56-1-3.85-12.21,4.15-95.78,33.64-132.27,74.65C1966.66,2551.85,2024.7,2562.27,2110,2522.16Z"/><path class="cls-25" d="M2128.16,2619.93l1.12-11.51c-.33-1.49-.68-3-1-4.47-10.82,3.38-79.26,25.56-107.13,53l107.14-36.78Z"/><path class="cls-26" d="M2134.85,2632.88l-1-4.46-5.55-8.3-107.14,36.78-.71.68S2068.1,2660.44,2134.85,2632.88Z"/><path class="cls-25" d="M2097.7,2499.94l2.26-18.89c-.34-1.28-.68-2.56-1-3.85-12.15,4.13-95,33.37-131.75,74.09l130.59-51.22Z"/><path class="cls-26" d="M2110,2522.16c0-.1,0-.2-.07-.3-.27-1.21-.54-2.44-.82-3.67l-11.29-18.12-130.59,51.22c-.16.19-.35.37-.52.56C1966.66,2551.85,2024.7,2562.27,2110,2522.16Z"/><path class="cls-25" d="M2068.41,2392.13l-1.72-8c-.45-1-.91-2-1.38-3-6.64,2-59.91,18.43-81.94,40.69h.08l85-29.72Z"/><path class="cls-26" d="M2074.31,2402.09l-1.16-2.88-4.74-7.08-85,29.72C1984.28,2421.9,2021.89,2423.88,2074.31,2402.09Z"/><path class="cls-27" d="M2108.05,2929.94c-27.85-4.27-96.85-42.09-150.09-297.33-78.8-325.14,19.41-338.08,19.41-338.08l.86-.19a60.58,60.58,0,0,0-18.55,1.76s-98.21,12.94-19.4,338.08c68.3,327.5,162.56,297.06,162.56,297.06C2104.63,2930.88,2106.36,2930.43,2108.05,2929.94Z"/><path class="cls-28" d="M1963.17,2657c-16.59-6.17-37-9.85-62-9.4-75.65-1.37-108.88,35.11-123.3,63.9-10.37,20.71-12.21,44.49-6.32,66.89,9.84,37.42,33.1,70.59,40.1,80,1.5,2,2.91,4.13,4.34,6.21,31.12,45.54,85.18,40.86,85.18,40.86s54.06,4.68,85.19-40.86c1.42-2.08,2.83-4.18,4.33-6.21,5.8-7.79,22.76-31.9,34-61.22C2046.19,2741.15,2019.36,2677.89,1963.17,2657Z"/><path class="cls-29" d="M1962.83,2656.21a141.73,141.73,0,0,0-23.07-6.31c.81.28,1.66.54,2.45.84,65.66,24.43,97,98.35,71.92,163.76-2.93,7.66-6.21,15-9.59,21.89a255.82,255.82,0,0,0,19.85-40C2045.85,2740.39,2019,2677.13,1962.83,2656.21Z"/><path class="cls-30" d="M1851.37,2864.57c-1.43-2.08-2.83-4.18-4.34-6.21-7-9.41-30.26-42.58-40.1-80-5.89-22.4-4-46.18,6.32-66.89,13.26-26.46,42.43-59.4,105.82-63.49q-8.5-.57-17.87-.41c-75.65-1.37-108.88,35.11-123.3,63.9-10.37,20.71-12.21,44.49-6.32,66.89,9.84,37.42,33.1,70.59,40.1,80,1.5,2,2.91,4.13,4.34,6.21,31.12,45.54,85.18,40.86,85.18,40.86a91.06,91.06,0,0,0,17.68-.79C1900.34,2902.21,1871.2,2893.59,1851.37,2864.57Z"/><path class="cls-30" d="M1925,2676.69c0,4.67-10.65,8.45-23.79,8.45s-23.79-3.78-23.79-8.45,10.65-8.44,23.79-8.44S1925,2672,1925,2676.69Z"/><path class="cls-31" d="M1905.19,2685l-3.94.12c.4-.93,10.24-23.48,18.68-28.82l1.83,2.89C1914.21,2664,1905.28,2684.8,1905.19,2685Z"/><path class="cls-32" d="M1961,2605.62s-48.14,7.73-47.9,60.2h.2l47.7-60Z"/><path class="cls-33" d="M1913.29,2665.81c3.27-.25,48.9-4.73,47.7-60Z"/><path class="cls-34" d="M1881.57,2589.64a4.52,4.52,0,0,0-6-1l-8,4.86c-2.16,1.31-2.68,3.9-1.11,5.57,7.56,8.11,26.76,32.17,29.08,69.69a123,123,0,0,1-.09,16.15c2.39.16,4.86.26,7.43.26l1.28,0a91.87,91.87,0,0,0,1.92-16.6C1906.54,2650.37,1902.83,2621.72,1881.57,2589.64Z"/><polygon class="cls-28" points="2902.59 2923.38 2686.26 2963.49 2624.3 2637.26 2840.45 2596.19 2902.59 2923.38"/><polygon class="cls-28" points="2840.35 2595.64 2623.97 2635.7 2625.75 2581.47 2818.17 2545.79 2840.35 2595.64"/><path class="cls-28" d="M2814.2,2524.79a11.31,11.31,0,0,0-13.22-9l-170,32.29a11.3,11.3,0,0,0-9,13.22l3.82,20.15L2818,2544.94Z"/><rect class="cls-30" x="2622.79" y="2615.58" width="220.06" height="7.31" transform="translate(-431.64 542.01) rotate(-10.5)"/><rect class="cls-35" x="2683.41" y="2932.51" width="220.02" height="11.02" transform="translate(-488.75 558.41) rotate(-10.5)"/><rect class="cls-30" x="2623.46" y="2556.52" width="195.7" height="7.17" transform="translate(-421.06 538.93) rotate(-10.5)"/><path class="cls-10" d="M2721,2869.31a8.38,8.38,0,1,0,16.47-3c-.84-4.55-9.78-19.17-12-18.76C2722.54,2848,2720.11,2864.76,2721,2869.31Z"/><path class="cls-36" d="M2685.19,2782l-28.69-150.79-1.36-7.32,1.82-55.2-1.33-7.17h.06l-2.54-13.34a11.35,11.35,0,0,1,0-4.27l-22.15,4.21a11.3,11.3,0,0,0-9,13.22l2.49,13.11h-.06l1.3,7L2624,2635.7l1.33,7.18h0L2653.5,2791s0,0,0,0l32.76,172.48,32.27-6L2685.2,2782Z"/><path class="cls-37" d="M2900.59,2912.55l-27.23-143.28,0,0-32.87-173-.11-.6h0l-22.16-49.8-.16-.85h0l-.51-2.67-.65-3.52h0l-2.65-14a11.31,11.31,0,0,0-13.22-9l-14.95,2.84a11.66,11.66,0,0,1,8.69,9.14l2.75,14.45h0l.68,3.64.52,2.77h0l.17.88,22.91,51.51h0l.11.63,34,179s0,0,0,0l27.79,146.22,18.88-3.51Z"/><path class="cls-38" d="M2513.1,2669.11l.23,0c-.1,0-.18-.08-.28-.11Z"/><path class="cls-39" d="M2670.73,2313l-58.33-10.85a10,10,0,0,0-11.65,8l-7.31,39.29,78,14.52,7.31-39.3A10,10,0,0,0,2670.73,2313Z"/><rect class="cls-19" x="2636.38" y="2280.53" width="5.67" height="79.31" transform="translate(-124.83 4490.16) rotate(-79.45)"/><path class="cls-19" d="M2648.17,2329.84l-20.78-3.86a5,5,0,0,1-4-5.86h0l30.66,5.71h0A5,5,0,0,1,2648.17,2329.84Z"/><path class="cls-38" d="M2595,2350.05l.23,0a2.36,2.36,0,0,1-.28-.12Z"/><path class="cls-40" d="M2692.94,2662.39c7.3-39.2-30.77-188.72-30.67-192.12,2.59-82.86,6.16-93,8.52-104.93h0v-.07l.21-1.06h0l.06-.29.06,0-77.45-14.41h0l-.24,1.92c-2.49,14.25-4.07,22.87-31.08,100.1h0s-90.49,129.17-97.79,168.38L2417,2875.35l228.37,42.5Zm-98-312.34-.05-.07a2.36,2.36,0,0,0,.28.12Z"/><rect class="cls-39" x="2444.79" y="2639.5" width="232.29" height="194.86" transform="translate(543.98 -422.35) rotate(10.54)"/><rect class="cls-10" x="2461.67" y="2641.06" width="232.29" height="10.34" transform="translate(527.67 -426.97) rotate(10.54)"/><rect class="cls-10" x="2427.78" y="2823.16" width="232.29" height="10.34" transform="translate(560.43 -417.7) rotate(10.54)"/><path class="cls-36" d="M2455.51,2817l1.89-10.17h0l1.43-7.67h0l1.89-10.17h0c8.55-45.95,18.49-99.36,25.36-136.25h0l1.89-10.17h0q.75-4,1.43-7.67h0l1.89-10.17h0c7.3-39.21,97.77-168.33,97.78-168.39h0c27-77.23,28.58-85.85,31.07-100.09l.25-1.92a0,0,0,0,0,0,0l-.23,0,6.27-33.71h0l1-5.58h0a10,10,0,0,1,11.65-8l-27-5a10,10,0,0,0-11.65,8h0l-1,5.58h0l-6.27,33.72.23,0h0l-.25,1.93c-2.48,14.24-4.06,22.86-31.07,100.09h0s-90.49,129.18-97.79,168.39h0l-1.89,10.16h0q-.67,3.65-1.43,7.68h0l-1.89,10.17h0c-6.87,36.88-16.81,90.29-25.36,136.24h0l-1.89,10.17h0q-.72,3.88-1.43,7.67h0l-1.89,10.17h0c-6,32.44-10.66,57.28-11.76,63.19l27.05,5c1.1-5.91,5.72-30.75,11.76-63.18Z"/><path class="cls-37" d="M2692.94,2662.39c7.3-39.2-30.77-188.72-30.67-192.12,2.59-82.86,6.16-93,8.52-104.93h0v-.07l.21-1.06h0l.06-.29.06,0,.29.06,6.27-33.72h0l1-5.58h0a10,10,0,0,0-8-11.65l-23.59-4.39a10,10,0,0,1,8,11.65h0l-1,5.58h0l-6.28,33.72-.29-.06-.06,0-.06.3h0l-.21,1.06v.07h0c-2.36,11.91-5.92,22.07-8.51,104.93-.11,3.4,38,152.92,30.67,192.12h0l-1.9,10.17-1.42,7.68-1.9,10.16-25.35,136.25-1.9,10.17-1.42,7.67-1.77,9.48-.13.69h0c-6,32.44-10.65,57.27-11.76,63.19l23.59,4.39c1.1-5.92,5.72-30.75,11.76-63.19h0l.13-.69,1.76-9.48,1.43-7.67,1.89-10.17,25.36-136.25,1.89-10.17,1.43-7.67,1.89-10.17Z"/><path class="cls-10" d="M2575.73,2683.73s-51.44,48.82-56.1,70.4a40,40,0,1,0,78.13,16.88C2602.43,2749.43,2575.73,2683.73,2575.73,2683.73Z"/><path class="cls-10" d="M2399.56,2530l-130.45,16.59a43.11,43.11,0,0,0-37.33,48.2l37.84,297.59a43.12,43.12,0,0,0,48.21,37.33l130.44-16.59a43.09,43.09,0,0,0,37.33-48.2l-37.84-297.59A43.11,43.11,0,0,0,2399.56,2530Z"/><path class="cls-39" d="M2339,2574.52a7.16,7.16,0,0,0-6.2,8l37.69,296.42a7.15,7.15,0,0,0,14.19-1.8l-37.69-296.43A7.15,7.15,0,0,0,2339,2574.52Z"/><path class="cls-23" d="M2425.9,2590.61a25.78,25.78,0,1,1-28.82-22.32A25.78,25.78,0,0,1,2425.9,2590.61Z"/><rect class="cls-41" x="2380.89" y="2591.4" width="38.89" height="4.92" transform="translate(-307.99 323.46) rotate(-7.25)"/><path class="cls-23" d="M2436.8,2676.34A25.78,25.78,0,1,1,2408,2654,25.78,25.78,0,0,1,2436.8,2676.34Z"/><rect class="cls-41" x="2391.79" y="2677.13" width="38.89" height="4.92" transform="translate(-318.7 325.51) rotate(-7.25)"/><path class="cls-23" d="M2447.7,2762.07a25.78,25.78,0,1,1-28.82-22.32A25.78,25.78,0,0,1,2447.7,2762.07Z"/><rect class="cls-41" x="2402.69" y="2762.86" width="38.89" height="4.92" transform="translate(-329.43 327.57) rotate(-7.25)"/><path class="cls-42" d="M2458.6,2847.8a25.78,25.78,0,1,1-28.82-22.32A25.78,25.78,0,0,1,2458.6,2847.8Z"/><rect class="cls-41" x="2413.59" y="2848.59" width="38.89" height="4.92" transform="translate(-340.22 329.71) rotate(-7.25)"/><path class="cls-23" d="M2312.87,2605a25.78,25.78,0,1,1-28.82-22.32A25.76,25.76,0,0,1,2312.87,2605Z"/><rect class="cls-41" x="2267.86" y="2605.77" width="38.89" height="4.92" transform="translate(-310.7 309.32) rotate(-7.25)"/><path class="cls-23" d="M2323.78,2690.71a25.78,25.78,0,1,1-28.83-22.32A25.78,25.78,0,0,1,2323.78,2690.71Z"/><rect class="cls-41" x="2278.76" y="2691.5" width="38.89" height="4.92" transform="translate(-321.49 311.45) rotate(-7.25)"/><path class="cls-23" d="M2334.68,2776.44a25.78,25.78,0,1,1-28.83-22.32A25.78,25.78,0,0,1,2334.68,2776.44Z"/><rect class="cls-41" x="2289.66" y="2777.23" width="38.89" height="4.92" transform="matrix(0.99, -0.13, 0.13, 0.99, -332.15, 313.44)"/><path class="cls-42" d="M2345.58,2862.17a25.78,25.78,0,1,1-28.83-22.32A25.78,25.78,0,0,1,2345.58,2862.17Z"/><rect class="cls-41" x="2300.56" y="2862.96" width="38.89" height="4.92" transform="translate(-342.94 315.56) rotate(-7.25)"/><rect class="cls-43" x="2091.02" y="2664.92" width="164.4" height="212.07"/><rect class="cls-44" x="2091.02" y="2695.23" width="164.4" height="10.76"/><rect class="cls-45" x="2091.02" y="2842.65" width="164.4" height="10.76"/><rect class="cls-46" x="2091.02" y="2664.92" width="23.99" height="212.07"/><rect class="cls-47" x="2231.43" y="2675" width="23.99" height="202.47"/><path class="cls-10" d="M2227.91,2776.24c0,47.34-24.49,85.72-54.69,85.72s-54.68-38.38-54.68-85.72,24.48-85.72,54.68-85.72S2227.91,2728.9,2227.91,2776.24Z"/><path class="cls-43" d="M2253.69,2651.05H2092.75a12.06,12.06,0,1,0,0,24.11h160.94a12.06,12.06,0,1,0,0-24.11Z"/><path class="cls-48" d="M2096.05,2672.1A12.06,12.06,0,0,1,2084,2660a11.94,11.94,0,0,1,2.39-7.13,12,12,0,0,0,6.37,22.25h160.94a12,12,0,0,0,9.68-4.92,12,12,0,0,1-6.38,1.86Z"/><rect class="cls-49" x="2089.83" y="1339.37" width="743.68" height="489.65"/><rect class="cls-49" x="2058.14" y="1219.5" width="807.05" height="122.43"/><rect class="cls-10" x="2415.09" y="1219.5" width="96.59" height="103.48"/><rect class="cls-49" x="2918.29" y="2628.59" width="1122.73" height="748.66"/><polygon class="cls-49" points="4082.57 2807.81 2876.72 2807.81 2918.29 2628.59 4041.01 2628.59 4082.57 2807.81"/><rect class="cls-50" x="2918.29" y="2807.81" width="1122.73" height="46.07"/><rect class="cls-51" x="2994.01" y="2917.85" width="216.73" height="258.58"/><rect class="cls-51" x="3371.28" y="2917.85" width="216.73" height="258.58"/><rect class="cls-51" x="2994.01" y="3244.75" width="971.27" height="57.06"/><rect class="cls-51" x="3748.55" y="2917.85" width="216.73" height="258.58"/><rect class="cls-49" x="604.24" y="2632.99" width="1130.39" height="744.27" transform="translate(2338.86 6010.25) rotate(180)"/><rect class="cls-49" x="556.07" y="2450.79" width="1226.72" height="186.09" transform="translate(2338.86 5087.67) rotate(180)"/><rect class="cls-50" x="604.23" y="2636.88" width="1130.39" height="54.77"/><rect class="cls-52" x="1093.42" y="2450.79" width="146.81" height="157.28" transform="translate(2333.65 5058.86) rotate(180)"/><rect class="cls-53" x="1697.1" y="2814.29" width="985.1" height="675.22"/><rect class="cls-54" x="2682.2" y="2814.29" width="337.58" height="675.22"/><polygon class="cls-53" points="2591.03 2992.77 1598.33 2992.77 1685.46 2814.3 2682.2 2814.3 2591.03 2992.77"/><polygon class="cls-50" points="2682.2 2896.93 2682.2 2814.6 2591.03 2993.08 1697.1 2993.08 1697.1 3023.98 2617.3 3023.98 2682.2 2896.93"/><polygon class="cls-54" points="3159.19 2992.77 2821.6 2992.77 2682.2 2814.3 3019.78 2814.3 3159.19 2992.77"/><polygon class="cls-55" points="2821.6 2992.77 2714.79 2856.02 2714.79 2856.02 2802.44 3062.31 3019.78 3062.31 3019.78 2992.77 2821.6 2992.77"/><rect class="cls-52" x="2422.63" y="3301.72" width="260.94" height="81.02"/><rect class="cls-52" x="1697.1" y="3093.96" width="260.93" height="81.03"/><path class="cls-28" d="M2622.08,1454.05h0a106.9,106.9,0,0,0-147-6.56,106.92,106.92,0,0,0-147.11,1.26h0a106.91,106.91,0,0,0-6.66,146.85c1.27,1.46,2.58,2.91,3.94,4.31l144.38,149.69,149.69-144.39q2.11-2,4.08-4.17A106.89,106.89,0,0,0,2622.08,1454.05Z"/><path class="cls-28" d="M1368.79,2858.34h0a143.63,143.63,0,0,0-197.44-8.81,143.62,143.62,0,0,0-197.62,1.7h0a143.62,143.62,0,0,0-9,197.28c1.71,2,3.46,3.9,5.29,5.79l194,201.09,201.09-194c1.9-1.83,3.72-3.7,5.49-5.6A143.62,143.62,0,0,0,1368.79,2858.34Z"/></g></g></svg>