<svg xmlns="http://www.w3.org/2000/svg" viewBox="0 0 1519.71 1635.43"><defs><style>.cls-1{fill:#fff;}.cls-2{fill:#f8c10c;}.cls-3{fill:#3f7720;}.cls-4{fill:#e64f0f;}.cls-5{fill:#4eb8e4;}.cls-6{fill:#05ad2e;}.cls-7{fill:#ed8d01;}.cls-8{fill:#000851;}</style></defs><title>marca1-03</title><g id="Layer_3" data-name="Layer 3"><path class="cls-1" d="M593.12,1209.91H628V1375.5H593.12v-32.92q-25.49,37.53-63.23,37.53-32.72,0-55.89-25.69T450.81,1292q0-34.73,23.39-60.72t54.89-26A69.87,69.87,0,0,1,566,1215.93a75.69,75.69,0,0,1,27.1,27.7Zm4.82,83.29q0-22.68-16.29-38.83t-39-16.16q-22.12,0-38.61,16T487.54,1292q0,23.48,16.09,39.94a52.54,52.54,0,0,0,39,16.46q22.73,0,39-16.36T597.94,1293.2Z"/><path class="cls-1" d="M784.12,1324.92v39.94q-26.7,15.26-51.79,15.25-34.32,0-60.11-25.79t-25.79-59.71q0-38.53,25.69-63.93t64.43-25.39q23.07,0,47.57,12v38.94q-26.29-16.86-49.78-16.86-21.68,0-37.93,15.26t-16.26,35.72q0,23.08,15.25,38.84A49.94,49.94,0,0,0,732.74,1345Q755.21,1345,784.12,1324.92Z"/><path class="cls-1" d="M788.25,1292q0-33.91,26.8-60.32t61.52-26.39q35.71,0,62.42,26T965.68,1292q0,34.92-26.19,61.52T879,1380.11q-36.74,0-63.73-26.29T788.25,1292Zm143.71.1q0-21.12-16.05-36.7t-38.14-15.59a54.3,54.3,0,0,0-39,15.79q-16.37,15.8-16.36,37.7,0,20.92,16.56,36.61t38.84,15.68q21.68,0,37.94-16.09T932,1292.1Z"/><path class="cls-1" d="M987.28,1115h34.93V1375.5H987.28Z"/><path class="cls-1" d="M1045.61,1155.51a25.49,25.49,0,0,1,8-18.76,26.2,26.2,0,0,1,19.07-7.93,26.7,26.7,0,0,1,0,53.39,26.38,26.38,0,0,1-19.07-7.83A25.41,25.41,0,0,1,1045.61,1155.51Zm9.84,54.4H1090V1375.5h-34.52Z"/><circle class="cls-2" cx="1072.51" cy="1155.51" r="27.95"/></g><g id="Layer_5" data-name="Layer 5"><path class="cls-3" d="M756.06,459.65a90.14,90.14,0,1,1,112,138.1q-5.47,2.76-11,5.27a289.87,289.87,0,0,1-106,25.35Q739,595.15,727,561.94q-8.38-23.22-16.8-46.4,13.08-15.46,26.25-31.59Q746.44,471.74,756.06,459.65Z"/><path class="cls-4" d="M479.27,338.88a98.07,98.07,0,0,1,23.18-21.36c24.88-16.37,58.28-20.56,86.61-10.75A99.76,99.76,0,0,1,618.33,323a115,115,0,0,1,20,21.83C651.92,364.59,696.52,475.05,751,628.37q-12.5.58-25,.07A287.37,287.37,0,0,1,578.85,581q-10-6.6-19.61-14.14a287.53,287.53,0,0,1-93-128.38s0,0,0,0q-2.83-7.8-5.2-15.74s0,0,0,0a98.21,98.21,0,0,1,18.29-83.85Z"/><path class="cls-5" d="M471.14,823.76A90.14,90.14,0,1,1,515.49,651.6q5.49,2.76,10.82,5.74a290,290,0,0,1,83.46,70.11q-19.59,29.37-39.14,58.78Q557,806.8,543.35,827.35q-20.22-1.3-41-2.3Q486.58,824.3,471.14,823.76Z"/><path class="cls-6" d="M538.81,1118.07a97.92,97.92,0,0,1-31-5.92c-28-10.25-51.2-34.6-60.18-63.2a99.6,99.6,0,0,1-4.35-33.2,115.06,115.06,0,0,1,5.63-29.07c7.77-22.66,70-124.23,160.83-259.23q7.89,9.7,15,20.07a287.34,287.34,0,0,1,49.43,146.42q.66,12,.31,24.17a287.5,287.5,0,0,1-47.81,151.17l0,0q-4.57,6.92-9.55,13.55s0,0,0,0a98.24,98.24,0,0,1-78.26,35.2Z"/><path class="cls-7" d="M931.15,904.41a90.14,90.14,0,1,1-170.56,50.17q-.45-6.12-.61-12.23a290.07,290.07,0,0,1,17.41-107.6q35.26,1.77,70.54,3.48,24.65,1.18,49.28,2.35,9.25,18,19,36.39Q923.7,890.88,931.15,904.41Z"/><path class="cls-8" d="M1149.16,695.44A98,98,0,0,1,1160,725.06c5.54,29.27-3.46,61.71-23.41,84.07a99.8,99.8,0,0,1-26.28,20.76A115.17,115.17,0,0,1,1082.41,840c-23.44,4.95-142.55,3.58-305-5.2Q781.67,823,787,811.63a287.46,287.46,0,0,1,100.37-117.5q9.95-6.69,20.6-12.66A287.61,287.61,0,0,1,1062.23,645h0c5.53.26,11,.68,16.53,1.26,0,0,0,0,0,0a98.19,98.19,0,0,1,70.34,49.15Z"/></g></svg>