<svg width="320" height="468" viewBox="0 0 320 468" fill="none" xmlns="http://www.w3.org/2000/svg">
<path d="M298 57.3459C295.399 57.2183 292.834 57.1513 290.197 57.1513C267.521 57.1152 245.112 61.9531 224.545 71.325C171.007 95.7063 133.911 148.888 133.911 210.596C133.911 214.106 134.041 217.616 134.308 221.062C134.506 224.052 134.769 226.978 135.169 229.84C136.677 242.058 139.725 254.045 144.243 265.526C149.211 288.347 183.196 322.349 183.924 323C154.45 301.901 132.091 272.62 119.729 238.934C118.338 235.293 117.148 231.595 116.088 227.766C115.36 225.589 114.763 223.372 114.3 221.126C109.151 200.772 107.739 179.681 110.128 158.84V158.773C116.153 104.484 146.961 57.4767 191.214 28.8708C217.216 12.0112 247.231 2.06335 278.324 0C288.797 17.5991 295.493 37.1141 298 57.3459Z" fill="white"/>
<path d="M303 93.3906C303.059 122.635 294.081 151.207 277.254 175.319C266.22 170.566 254.303 168.118 242.256 168.129C239.02 168.128 235.786 168.313 232.572 168.682C197.759 172.432 169.137 196.277 158.948 228.176C157.844 231.538 156.964 234.967 156.314 238.442C155.358 243.592 154.877 248.816 154.877 254.051C154.893 260.08 155.522 266.093 156.753 272C152.489 261.145 149.612 249.812 148.187 238.26C147.813 235.555 147.562 232.789 147.374 229.947C147.124 226.689 147 223.37 147 220.052C147 161.725 181.998 111.448 232.503 88.3997C251.907 79.5409 273.047 74.9673 294.439 75.0002C296.94 75.0002 299.378 75.0641 301.813 75.1856C302.619 81.2213 303.016 87.3031 303 93.3906Z" fill="white"/>
<path d="M275 191.557C250.516 226.072 209.535 248.785 163 249C163.599 245.837 164.411 242.716 165.432 239.656C174.868 210.623 201.375 188.918 233.614 185.506C236.591 185.167 239.587 184.998 242.585 185C253.743 184.994 264.781 187.227 275 191.557Z" fill="white"/>
<path d="M101 221C44.4459 216.459 6.43421e-06 170.232 6.43421e-06 113.956C-0.00130603 110.296 0.198171 106.639 0.597582 103C42.1176 103.194 78.1125 125.691 96.8104 158.821V158.888C94.4107 179.67 95.8294 200.703 101 221Z" fill="white"/>
<path d="M93.592 397.16H54.68L47.512 417H35.224L67.48 328.296H80.92L113.048 417H100.76L93.592 397.16ZM90.264 387.688L74.136 342.632L58.008 387.688H90.264ZM117.634 381.8C117.634 374.547 119.085 368.232 121.986 362.856C124.887 357.395 128.898 353.171 134.018 350.184C139.223 347.197 145.154 345.704 151.81 345.704C160.429 345.704 167.511 347.795 173.058 351.976C178.69 356.157 182.402 361.96 184.194 369.384H171.65C170.455 365.117 168.109 361.747 164.61 359.272C161.197 356.797 156.93 355.56 151.81 355.56C145.154 355.56 139.778 357.864 135.682 362.472C131.586 366.995 129.538 373.437 129.538 381.8C129.538 390.248 131.586 396.776 135.682 401.384C139.778 405.992 145.154 408.296 151.81 408.296C156.93 408.296 161.197 407.101 164.61 404.712C168.023 402.323 170.37 398.909 171.65 394.472H184.194C182.317 401.64 178.562 407.4 172.93 411.752C167.298 416.019 160.258 418.152 151.81 418.152C145.154 418.152 139.223 416.659 134.018 413.672C128.898 410.685 124.887 406.461 121.986 401C119.085 395.539 117.634 389.139 117.634 381.8ZM225.208 418.152C218.637 418.152 212.664 416.659 207.288 413.672C201.997 410.685 197.816 406.461 194.744 401C191.757 395.453 190.264 389.053 190.264 381.8C190.264 374.632 191.8 368.317 194.872 362.856C198.029 357.309 202.296 353.085 207.672 350.184C213.048 347.197 219.064 345.704 225.72 345.704C232.376 345.704 238.392 347.197 243.768 350.184C249.144 353.085 253.368 357.267 256.44 362.728C259.597 368.189 261.176 374.547 261.176 381.8C261.176 389.053 259.555 395.453 256.312 401C253.155 406.461 248.845 410.685 243.384 413.672C237.923 416.659 231.864 418.152 225.208 418.152ZM225.208 407.912C229.389 407.912 233.315 406.931 236.984 404.968C240.653 403.005 243.597 400.061 245.816 396.136C248.12 392.211 249.272 387.432 249.272 381.8C249.272 376.168 248.163 371.389 245.944 367.464C243.725 363.539 240.824 360.637 237.24 358.76C233.656 356.797 229.773 355.816 225.592 355.816C221.325 355.816 217.4 356.797 213.816 358.76C210.317 360.637 207.501 363.539 205.368 367.464C203.235 371.389 202.168 376.168 202.168 381.8C202.168 387.517 203.192 392.339 205.24 396.264C207.373 400.189 210.189 403.133 213.688 405.096C217.187 406.973 221.027 407.912 225.208 407.912ZM283.019 322.28V417H271.371V322.28H283.019ZM303.767 335.464C301.548 335.464 299.671 334.696 298.135 333.16C296.599 331.624 295.831 329.747 295.831 327.528C295.831 325.309 296.599 323.432 298.135 321.896C299.671 320.36 301.548 319.592 303.767 319.592C305.9 319.592 307.692 320.36 309.143 321.896C310.679 323.432 311.447 325.309 311.447 327.528C311.447 329.747 310.679 331.624 309.143 333.16C307.692 334.696 305.9 335.464 303.767 335.464ZM309.399 346.856V417H297.751V346.856H309.399Z" fill="white"/>
</svg>
