<svg width="5910" height="2414" viewBox="0 0 5910 2414" fill="none" xmlns="http://www.w3.org/2000/svg">
<path d="M2226.64 428.486C2207.21 427.532 2188.04 427.031 2168.34 427.031C1998.9 426.762 1831.47 462.91 1677.79 532.937C1277.76 715.113 1000.58 1112.48 1000.58 1573.56C1000.58 1599.79 1001.55 1626.01 1003.54 1651.76C1005.02 1674.1 1006.99 1695.97 1009.98 1717.35C1021.25 1808.65 1044.02 1898.21 1077.78 1984C1114.9 2154.52 1368.83 2408.58 1374.27 2413.44C1154.04 2255.79 986.974 2037.01 894.61 1785.3C884.212 1758.1 875.321 1730.47 867.402 1701.86C861.961 1685.59 857.5 1669.02 854.041 1652.24C815.574 1500.16 805.02 1342.56 822.873 1186.85V1186.35C867.887 780.702 1098.09 429.463 1428.74 215.721C1623.02 89.7474 1847.29 15.4173 2079.62 0C2157.87 131.5 2207.91 277.315 2226.64 428.486Z" fill="white"/>
<path d="M2264 697.808C2264.44 916.32 2197.35 1129.81 2071.63 1309.98C1989.18 1274.46 1900.14 1256.17 1810.13 1256.25C1785.94 1256.24 1761.78 1257.62 1737.76 1260.38C1477.64 1288.4 1263.78 1466.57 1187.65 1704.92C1179.4 1730.04 1172.83 1755.66 1167.97 1781.62C1160.83 1820.1 1157.23 1859.14 1157.24 1898.25C1157.35 1943.31 1162.05 1988.23 1171.25 2032.37C1139.39 1951.26 1117.89 1866.58 1107.24 1780.26C1104.45 1760.05 1102.58 1739.39 1101.17 1718.15C1099.3 1693.81 1098.38 1669.01 1098.38 1644.21C1098.38 1208.4 1359.88 832.736 1737.25 660.517C1882.23 594.324 2040.19 560.15 2200.04 560.396C2218.72 560.396 2236.94 560.874 2255.13 561.781C2261.15 606.88 2264.12 652.322 2264 697.808Z" fill="white"/>
<path d="M2054.79 1431.3C1871.84 1689.2 1565.64 1858.91 1217.93 1860.51C1222.4 1836.88 1228.47 1813.56 1236.1 1790.7C1306.6 1573.77 1504.66 1411.59 1745.55 1386.09C1767.8 1383.56 1790.18 1382.3 1812.58 1382.31C1895.95 1382.27 1978.43 1398.95 2054.79 1431.3Z" fill="white"/>
<path d="M754.667 1651.3C332.097 1617.37 4.80761e-05 1271.96 4.80761e-05 851.468C-0.00975856 824.124 1.48072 796.799 4.4651 769.609C314.701 771.06 583.653 939.152 723.362 1186.7V1187.2C705.432 1342.48 716.032 1499.64 754.667 1651.3Z" fill="white"/>
<mask id="path-5-outside-1_17_383" maskUnits="userSpaceOnUse" x="2587" y="766" width="3323" height="1144" fill="black">
<rect fill="white" x="2587" y="766" width="3323" height="1144"/>
<path d="M2982.1 1906C2907.74 1906 2841.11 1888.66 2782.2 1853.97C2723.3 1818.32 2676.46 1770.14 2641.7 1709.44C2607.9 1648.74 2591 1580.33 2591 1504.21C2591 1427.13 2608.38 1358.23 2643.15 1297.53C2678.88 1236.83 2727.16 1189.13 2788 1154.45C2848.84 1118.8 2917.4 1100.97 2993.69 1100.97C3069.98 1100.97 3138.06 1118.8 3197.93 1154.45C3258.77 1189.13 3306.57 1236.83 3341.33 1297.53C3377.06 1358.23 3395.41 1427.13 3396.38 1504.21L3351.47 1538.9C3351.47 1608.27 3335.05 1670.9 3302.22 1726.78C3270.35 1781.7 3226.42 1825.55 3170.41 1858.31C3115.36 1890.1 3052.59 1906 2982.1 1906ZM2993.69 1804.83C3049.7 1804.83 3099.43 1791.82 3142.88 1765.81C3187.31 1739.79 3222.07 1704.14 3247.18 1658.85C3273.25 1612.61 3286.29 1561.06 3286.29 1504.21C3286.29 1446.4 3273.25 1394.85 3247.18 1349.56C3222.07 1304.28 3187.31 1268.63 3142.88 1242.61C3099.43 1215.63 3049.7 1202.14 2993.69 1202.14C2938.64 1202.14 2888.91 1215.63 2844.49 1242.61C2800.07 1268.63 2764.82 1304.28 2738.75 1349.56C2712.68 1394.85 2699.64 1446.4 2699.64 1504.21C2699.64 1561.06 2712.68 1612.61 2738.75 1658.85C2764.82 1704.14 2800.07 1739.79 2844.49 1765.81C2888.91 1791.82 2938.64 1804.83 2993.69 1804.83ZM3339.88 1898.77C3323.47 1898.77 3309.95 1893.96 3299.32 1884.32C3288.7 1873.72 3283.39 1860.23 3283.39 1843.85V1596.71L3310.91 1482.53L3396.38 1504.21V1843.85C3396.38 1860.23 3391.06 1873.72 3380.44 1884.32C3369.82 1893.96 3356.3 1898.77 3339.88 1898.77Z"/>
<path d="M3937.77 1906C3861.48 1906 3793.4 1888.66 3733.53 1853.97C3674.62 1818.32 3627.79 1770.14 3593.02 1709.44C3559.22 1648.74 3542.32 1580.33 3542.32 1504.21C3542.32 1427.13 3558.74 1358.23 3591.57 1297.53C3624.41 1236.83 3669.31 1189.13 3726.29 1154.45C3783.26 1118.8 3848.93 1100.97 3923.28 1100.97C3982.19 1100.97 4036.27 1112.53 4085.52 1135.66C4135.73 1158.78 4179.67 1193.47 4217.33 1239.72C4227.96 1251.28 4231.82 1263.81 4228.92 1277.3C4226.02 1289.82 4217.82 1300.9 4204.3 1310.54C4193.67 1318.25 4181.6 1321.14 4168.08 1319.21C4155.53 1316.32 4144.42 1309.09 4134.77 1297.53C4078.76 1233.94 4008.26 1202.14 3923.28 1202.14C3869.21 1202.14 3821.41 1215.15 3779.88 1241.17C3739.32 1267.18 3707.46 1302.83 3684.28 1348.12C3662.07 1393.4 3650.96 1445.43 3650.96 1504.21C3650.96 1562.02 3663.03 1613.57 3687.18 1658.85C3711.32 1704.14 3745.12 1739.79 3788.57 1765.81C3832.03 1791.82 3881.76 1804.83 3937.77 1804.83C3975.43 1804.83 4009.71 1800.01 4040.61 1790.38C4072.48 1779.78 4100.49 1763.88 4124.63 1742.68C4136.22 1733.05 4148.29 1727.75 4160.84 1726.78C4173.4 1725.82 4184.98 1729.67 4195.61 1738.35C4207.19 1748.94 4213.47 1760.99 4214.44 1774.48C4216.37 1787.97 4212.02 1799.53 4201.4 1809.17C4130.91 1873.72 4043.03 1906 3937.77 1906Z"/>
<path d="M4777.51 1906C4700.26 1906 4631.21 1888.66 4570.38 1853.97C4509.54 1819.28 4461.74 1771.59 4426.97 1710.89C4392.21 1650.18 4374.83 1581.29 4374.83 1504.21C4374.83 1426.16 4392.21 1356.79 4426.97 1296.09C4461.74 1235.38 4509.54 1187.69 4570.38 1153C4631.21 1118.32 4700.26 1100.97 4777.51 1100.97C4854.77 1100.97 4923.33 1118.32 4983.2 1153C5044.04 1187.69 5091.84 1235.38 5126.61 1296.09C5161.37 1356.79 5179.24 1426.16 5180.2 1504.21C5180.2 1581.29 5162.34 1650.18 5126.61 1710.89C5091.84 1771.59 5044.04 1819.28 4983.2 1853.97C4923.33 1888.66 4854.77 1906 4777.51 1906ZM4777.51 1804.83C4833.52 1804.83 4883.74 1791.82 4928.16 1765.81C4972.58 1739.79 5007.34 1704.14 5032.45 1658.85C5057.56 1613.57 5070.11 1562.02 5070.11 1504.21C5070.11 1446.4 5057.56 1394.85 5032.45 1349.56C5007.34 1303.31 4972.58 1267.18 4928.16 1241.17C4883.74 1215.15 4833.52 1202.14 4777.51 1202.14C4721.5 1202.14 4671.29 1215.15 4626.87 1241.17C4582.45 1267.18 4547.2 1303.31 4521.13 1349.56C4496.02 1394.85 4483.46 1446.4 4483.46 1504.21C4483.46 1562.02 4496.02 1613.57 4521.13 1658.85C4547.2 1704.14 4582.45 1739.79 4626.87 1765.81C4671.29 1791.82 4721.5 1804.83 4777.51 1804.83Z"/>
<path d="M5539.08 1898.77C5500.45 1898.77 5465.69 1888.17 5434.79 1866.98C5404.85 1845.78 5381.19 1816.39 5363.81 1778.81C5347.4 1741.24 5339.19 1697.88 5339.19 1648.74V824.921C5339.19 808.541 5344.02 795.533 5353.67 785.898C5364.29 775.299 5377.81 770 5394.23 770C5410.65 770 5423.68 775.299 5433.34 785.898C5443.96 795.533 5449.27 808.541 5449.27 824.921V1648.74C5449.27 1690.17 5457.48 1723.89 5473.9 1749.91C5491.28 1775.92 5513.01 1788.93 5539.08 1788.93H5575.29C5589.78 1788.93 5601.37 1794.23 5610.06 1804.83C5618.75 1814.46 5623.1 1827.47 5623.1 1843.85C5623.1 1860.23 5616.82 1873.72 5604.27 1884.32C5592.68 1893.96 5577.23 1898.77 5557.91 1898.77H5539.08Z"/>
<path d="M5827.67 1898.77C5810.28 1898.77 5796.28 1893.96 5785.66 1884.32C5776 1873.72 5771.17 1859.75 5771.17 1842.41V1164.56C5771.17 1147.22 5776 1133.73 5785.66 1124.1C5796.28 1113.5 5810.28 1108.2 5827.67 1108.2C5844.08 1108.2 5857.12 1113.5 5866.77 1124.1C5877.4 1133.73 5882.71 1147.22 5882.71 1164.56V1842.41C5882.71 1859.75 5877.4 1873.72 5866.77 1884.32C5857.12 1893.96 5844.08 1898.77 5827.67 1898.77ZM5826.22 957.888C5804.97 957.888 5786.62 950.18 5771.17 934.763C5755.72 919.347 5748 900.558 5748 878.397C5748 854.309 5755.72 835.52 5771.17 822.03C5787.59 807.578 5806.42 800.351 5827.67 800.351C5847.94 800.351 5865.81 807.578 5881.26 822.03C5897.68 835.52 5905.89 854.309 5905.89 878.397C5905.89 900.558 5898.16 919.347 5882.71 934.763C5867.26 950.18 5848.43 957.888 5826.22 957.888Z"/>
</mask>
<path d="M2982.1 1906C2907.74 1906 2841.11 1888.66 2782.2 1853.97C2723.3 1818.32 2676.46 1770.14 2641.7 1709.44C2607.9 1648.74 2591 1580.33 2591 1504.21C2591 1427.13 2608.38 1358.23 2643.15 1297.53C2678.88 1236.83 2727.16 1189.13 2788 1154.45C2848.84 1118.8 2917.4 1100.97 2993.69 1100.97C3069.98 1100.97 3138.06 1118.8 3197.93 1154.45C3258.77 1189.13 3306.57 1236.83 3341.33 1297.53C3377.06 1358.23 3395.41 1427.13 3396.38 1504.21L3351.47 1538.9C3351.47 1608.27 3335.05 1670.9 3302.22 1726.78C3270.35 1781.7 3226.42 1825.55 3170.41 1858.31C3115.36 1890.1 3052.59 1906 2982.1 1906ZM2993.69 1804.83C3049.7 1804.83 3099.43 1791.82 3142.88 1765.81C3187.31 1739.79 3222.07 1704.14 3247.18 1658.85C3273.25 1612.61 3286.29 1561.06 3286.29 1504.21C3286.29 1446.4 3273.25 1394.85 3247.18 1349.56C3222.07 1304.28 3187.31 1268.63 3142.88 1242.61C3099.43 1215.63 3049.7 1202.14 2993.69 1202.14C2938.64 1202.14 2888.91 1215.63 2844.49 1242.61C2800.07 1268.63 2764.82 1304.28 2738.75 1349.56C2712.68 1394.85 2699.64 1446.4 2699.64 1504.21C2699.64 1561.06 2712.68 1612.61 2738.75 1658.85C2764.82 1704.14 2800.07 1739.79 2844.49 1765.81C2888.91 1791.82 2938.64 1804.83 2993.69 1804.83ZM3339.88 1898.77C3323.47 1898.77 3309.95 1893.96 3299.32 1884.32C3288.7 1873.72 3283.39 1860.23 3283.39 1843.85V1596.71L3310.91 1482.53L3396.38 1504.21V1843.85C3396.38 1860.23 3391.06 1873.72 3380.44 1884.32C3369.82 1893.96 3356.3 1898.77 3339.88 1898.77Z" fill="white"/>
<path d="M3937.77 1906C3861.48 1906 3793.4 1888.66 3733.53 1853.97C3674.62 1818.32 3627.79 1770.14 3593.02 1709.44C3559.22 1648.74 3542.32 1580.33 3542.32 1504.21C3542.32 1427.13 3558.74 1358.23 3591.57 1297.53C3624.41 1236.83 3669.31 1189.13 3726.29 1154.45C3783.26 1118.8 3848.93 1100.97 3923.28 1100.97C3982.19 1100.97 4036.27 1112.53 4085.52 1135.66C4135.73 1158.78 4179.67 1193.47 4217.33 1239.72C4227.96 1251.28 4231.82 1263.81 4228.92 1277.3C4226.02 1289.82 4217.82 1300.9 4204.3 1310.54C4193.67 1318.25 4181.6 1321.14 4168.08 1319.21C4155.53 1316.32 4144.42 1309.09 4134.77 1297.53C4078.76 1233.94 4008.26 1202.14 3923.28 1202.14C3869.21 1202.14 3821.41 1215.15 3779.88 1241.17C3739.32 1267.18 3707.46 1302.83 3684.28 1348.12C3662.07 1393.4 3650.96 1445.43 3650.96 1504.21C3650.96 1562.02 3663.03 1613.57 3687.18 1658.85C3711.32 1704.14 3745.12 1739.79 3788.57 1765.81C3832.03 1791.82 3881.76 1804.83 3937.77 1804.83C3975.43 1804.83 4009.71 1800.01 4040.61 1790.38C4072.48 1779.78 4100.49 1763.88 4124.63 1742.68C4136.22 1733.05 4148.29 1727.75 4160.84 1726.78C4173.4 1725.82 4184.98 1729.67 4195.61 1738.35C4207.19 1748.94 4213.47 1760.99 4214.44 1774.48C4216.37 1787.97 4212.02 1799.53 4201.4 1809.17C4130.91 1873.72 4043.03 1906 3937.77 1906Z" fill="white"/>
<path d="M4777.51 1906C4700.26 1906 4631.21 1888.66 4570.38 1853.97C4509.54 1819.28 4461.74 1771.59 4426.97 1710.89C4392.21 1650.18 4374.83 1581.29 4374.83 1504.21C4374.83 1426.16 4392.21 1356.79 4426.97 1296.09C4461.74 1235.38 4509.54 1187.69 4570.38 1153C4631.21 1118.32 4700.26 1100.97 4777.51 1100.97C4854.77 1100.97 4923.33 1118.32 4983.2 1153C5044.04 1187.69 5091.84 1235.38 5126.61 1296.09C5161.37 1356.79 5179.24 1426.16 5180.2 1504.21C5180.2 1581.29 5162.34 1650.18 5126.61 1710.89C5091.84 1771.59 5044.04 1819.28 4983.2 1853.97C4923.33 1888.66 4854.77 1906 4777.51 1906ZM4777.51 1804.83C4833.52 1804.83 4883.74 1791.82 4928.16 1765.81C4972.58 1739.79 5007.34 1704.14 5032.45 1658.85C5057.56 1613.57 5070.11 1562.02 5070.11 1504.21C5070.11 1446.4 5057.56 1394.85 5032.45 1349.56C5007.34 1303.31 4972.58 1267.18 4928.16 1241.17C4883.74 1215.15 4833.52 1202.14 4777.51 1202.14C4721.5 1202.14 4671.29 1215.15 4626.87 1241.17C4582.45 1267.18 4547.2 1303.31 4521.13 1349.56C4496.02 1394.85 4483.46 1446.4 4483.46 1504.21C4483.46 1562.02 4496.02 1613.57 4521.13 1658.85C4547.2 1704.14 4582.45 1739.79 4626.87 1765.81C4671.29 1791.82 4721.5 1804.83 4777.51 1804.83Z" fill="white"/>
<path d="M5539.08 1898.77C5500.45 1898.77 5465.69 1888.17 5434.79 1866.98C5404.85 1845.78 5381.19 1816.39 5363.81 1778.81C5347.4 1741.24 5339.19 1697.88 5339.19 1648.74V824.921C5339.19 808.541 5344.02 795.533 5353.67 785.898C5364.29 775.299 5377.81 770 5394.23 770C5410.65 770 5423.68 775.299 5433.34 785.898C5443.96 795.533 5449.27 808.541 5449.27 824.921V1648.74C5449.27 1690.17 5457.48 1723.89 5473.9 1749.91C5491.28 1775.92 5513.01 1788.93 5539.08 1788.93H5575.29C5589.78 1788.93 5601.37 1794.23 5610.06 1804.83C5618.75 1814.46 5623.1 1827.47 5623.1 1843.85C5623.1 1860.23 5616.82 1873.72 5604.27 1884.32C5592.68 1893.96 5577.23 1898.77 5557.91 1898.77H5539.08Z" fill="white"/>
<path d="M5827.67 1898.77C5810.28 1898.77 5796.28 1893.96 5785.66 1884.32C5776 1873.72 5771.17 1859.75 5771.17 1842.41V1164.56C5771.17 1147.22 5776 1133.73 5785.66 1124.1C5796.28 1113.5 5810.28 1108.2 5827.67 1108.2C5844.08 1108.2 5857.12 1113.5 5866.77 1124.1C5877.4 1133.73 5882.71 1147.22 5882.71 1164.56V1842.41C5882.71 1859.75 5877.4 1873.72 5866.77 1884.32C5857.12 1893.96 5844.08 1898.77 5827.67 1898.77ZM5826.22 957.888C5804.97 957.888 5786.62 950.18 5771.17 934.763C5755.72 919.347 5748 900.558 5748 878.397C5748 854.309 5755.72 835.52 5771.17 822.03C5787.59 807.578 5806.42 800.351 5827.67 800.351C5847.94 800.351 5865.81 807.578 5881.26 822.03C5897.68 835.52 5905.89 854.309 5905.89 878.397C5905.89 900.558 5898.16 919.347 5882.71 934.763C5867.26 950.18 5848.43 957.888 5826.22 957.888Z" fill="white"/>
<path d="M2982.1 1906C2907.74 1906 2841.11 1888.66 2782.2 1853.97C2723.3 1818.32 2676.46 1770.14 2641.7 1709.44C2607.9 1648.74 2591 1580.33 2591 1504.21C2591 1427.13 2608.38 1358.23 2643.15 1297.53C2678.88 1236.83 2727.16 1189.13 2788 1154.45C2848.84 1118.8 2917.4 1100.97 2993.69 1100.97C3069.98 1100.97 3138.06 1118.8 3197.93 1154.45C3258.77 1189.13 3306.57 1236.83 3341.33 1297.53C3377.06 1358.23 3395.41 1427.13 3396.38 1504.21L3351.47 1538.9C3351.47 1608.27 3335.05 1670.9 3302.22 1726.78C3270.35 1781.7 3226.42 1825.55 3170.41 1858.31C3115.36 1890.1 3052.59 1906 2982.1 1906ZM2993.69 1804.83C3049.7 1804.83 3099.43 1791.82 3142.88 1765.81C3187.31 1739.79 3222.07 1704.14 3247.18 1658.85C3273.25 1612.61 3286.29 1561.06 3286.29 1504.21C3286.29 1446.4 3273.25 1394.85 3247.18 1349.56C3222.07 1304.28 3187.31 1268.63 3142.88 1242.61C3099.43 1215.63 3049.7 1202.14 2993.69 1202.14C2938.64 1202.14 2888.91 1215.63 2844.49 1242.61C2800.07 1268.63 2764.82 1304.28 2738.75 1349.56C2712.68 1394.85 2699.64 1446.4 2699.64 1504.21C2699.64 1561.06 2712.68 1612.61 2738.75 1658.85C2764.82 1704.14 2800.07 1739.79 2844.49 1765.81C2888.91 1791.82 2938.64 1804.83 2993.69 1804.83ZM3339.88 1898.77C3323.47 1898.77 3309.95 1893.96 3299.32 1884.32C3288.7 1873.72 3283.39 1860.23 3283.39 1843.85V1596.71L3310.91 1482.53L3396.38 1504.21V1843.85C3396.38 1860.23 3391.06 1873.72 3380.44 1884.32C3369.82 1893.96 3356.3 1898.77 3339.88 1898.77Z" stroke="white" stroke-width="8" mask="url(#path-5-outside-1_17_383)"/>
<path d="M3937.77 1906C3861.48 1906 3793.4 1888.66 3733.53 1853.97C3674.62 1818.32 3627.79 1770.14 3593.02 1709.44C3559.22 1648.74 3542.32 1580.33 3542.32 1504.21C3542.32 1427.13 3558.74 1358.23 3591.57 1297.53C3624.41 1236.83 3669.31 1189.13 3726.29 1154.45C3783.26 1118.8 3848.93 1100.97 3923.28 1100.97C3982.19 1100.97 4036.27 1112.53 4085.52 1135.66C4135.73 1158.78 4179.67 1193.47 4217.33 1239.72C4227.96 1251.28 4231.82 1263.81 4228.92 1277.3C4226.02 1289.82 4217.82 1300.9 4204.3 1310.54C4193.67 1318.25 4181.6 1321.14 4168.08 1319.21C4155.53 1316.32 4144.42 1309.09 4134.77 1297.53C4078.76 1233.94 4008.26 1202.14 3923.28 1202.14C3869.21 1202.14 3821.41 1215.15 3779.88 1241.17C3739.32 1267.18 3707.46 1302.83 3684.28 1348.12C3662.07 1393.4 3650.96 1445.43 3650.96 1504.21C3650.96 1562.02 3663.03 1613.57 3687.18 1658.85C3711.32 1704.14 3745.12 1739.79 3788.57 1765.81C3832.03 1791.82 3881.76 1804.83 3937.77 1804.83C3975.43 1804.83 4009.71 1800.01 4040.61 1790.38C4072.48 1779.78 4100.49 1763.88 4124.63 1742.68C4136.22 1733.05 4148.29 1727.75 4160.84 1726.78C4173.4 1725.82 4184.98 1729.67 4195.61 1738.35C4207.19 1748.94 4213.47 1760.99 4214.44 1774.48C4216.37 1787.97 4212.02 1799.53 4201.4 1809.17C4130.91 1873.72 4043.03 1906 3937.77 1906Z" stroke="white" stroke-width="8" mask="url(#path-5-outside-1_17_383)"/>
<path d="M4777.51 1906C4700.26 1906 4631.21 1888.66 4570.38 1853.97C4509.54 1819.28 4461.74 1771.59 4426.97 1710.89C4392.21 1650.18 4374.83 1581.29 4374.83 1504.21C4374.83 1426.16 4392.21 1356.79 4426.97 1296.09C4461.74 1235.38 4509.54 1187.69 4570.38 1153C4631.21 1118.32 4700.26 1100.97 4777.51 1100.97C4854.77 1100.97 4923.33 1118.32 4983.2 1153C5044.04 1187.69 5091.84 1235.38 5126.61 1296.09C5161.37 1356.79 5179.24 1426.16 5180.2 1504.21C5180.2 1581.29 5162.34 1650.18 5126.61 1710.89C5091.84 1771.59 5044.04 1819.28 4983.2 1853.97C4923.33 1888.66 4854.77 1906 4777.51 1906ZM4777.51 1804.83C4833.52 1804.83 4883.74 1791.82 4928.16 1765.81C4972.58 1739.79 5007.34 1704.14 5032.45 1658.85C5057.56 1613.57 5070.11 1562.02 5070.11 1504.21C5070.11 1446.4 5057.56 1394.85 5032.45 1349.56C5007.34 1303.31 4972.58 1267.18 4928.16 1241.17C4883.74 1215.15 4833.52 1202.14 4777.51 1202.14C4721.5 1202.14 4671.29 1215.15 4626.87 1241.17C4582.45 1267.18 4547.2 1303.31 4521.13 1349.56C4496.02 1394.85 4483.46 1446.4 4483.46 1504.21C4483.46 1562.02 4496.02 1613.57 4521.13 1658.85C4547.2 1704.14 4582.45 1739.79 4626.87 1765.81C4671.29 1791.82 4721.5 1804.83 4777.51 1804.83Z" stroke="white" stroke-width="8" mask="url(#path-5-outside-1_17_383)"/>
<path d="M5539.08 1898.77C5500.45 1898.77 5465.69 1888.17 5434.79 1866.98C5404.85 1845.78 5381.19 1816.39 5363.81 1778.81C5347.4 1741.24 5339.19 1697.88 5339.19 1648.74V824.921C5339.19 808.541 5344.02 795.533 5353.67 785.898C5364.29 775.299 5377.81 770 5394.23 770C5410.65 770 5423.68 775.299 5433.34 785.898C5443.96 795.533 5449.27 808.541 5449.27 824.921V1648.74C5449.27 1690.17 5457.48 1723.89 5473.9 1749.91C5491.28 1775.92 5513.01 1788.93 5539.08 1788.93H5575.29C5589.78 1788.93 5601.37 1794.23 5610.06 1804.83C5618.75 1814.46 5623.1 1827.47 5623.1 1843.85C5623.1 1860.23 5616.82 1873.72 5604.27 1884.32C5592.68 1893.96 5577.23 1898.77 5557.91 1898.77H5539.08Z" stroke="white" stroke-width="8" mask="url(#path-5-outside-1_17_383)"/>
<path d="M5827.67 1898.77C5810.28 1898.77 5796.28 1893.96 5785.66 1884.32C5776 1873.72 5771.17 1859.75 5771.17 1842.41V1164.56C5771.17 1147.22 5776 1133.73 5785.66 1124.1C5796.28 1113.5 5810.28 1108.2 5827.67 1108.2C5844.08 1108.2 5857.12 1113.5 5866.77 1124.1C5877.4 1133.73 5882.71 1147.22 5882.71 1164.56V1842.41C5882.71 1859.75 5877.4 1873.72 5866.77 1884.32C5857.12 1893.96 5844.08 1898.77 5827.67 1898.77ZM5826.22 957.888C5804.97 957.888 5786.62 950.18 5771.17 934.763C5755.72 919.347 5748 900.558 5748 878.397C5748 854.309 5755.72 835.52 5771.17 822.03C5787.59 807.578 5806.42 800.351 5827.67 800.351C5847.94 800.351 5865.81 807.578 5881.26 822.03C5897.68 835.52 5905.89 854.309 5905.89 878.397C5905.89 900.558 5898.16 919.347 5882.71 934.763C5867.26 950.18 5848.43 957.888 5826.22 957.888Z" stroke="white" stroke-width="8" mask="url(#path-5-outside-1_17_383)"/>
</svg>
