<svg xmlns="http://www.w3.org/2000/svg" viewBox="0 0 1519.71 1635.43"><defs><style>.cls-1{fill:#fff;}</style></defs><title>marca2</title><g id="Layer_2" data-name="Layer 2"><path class="cls-1" d="M1153.32,307.72c-8-.4-15.89-.61-24-.61a477.67,477.67,0,0,0-201.93,44.42C762.72,427.94,648.62,594.61,648.62,788c0,11,.4,22,1.22,32.8.61,9.37,1.42,18.54,2.65,27.51A466,466,0,0,0,680.4,960.15c15.28,71.52,119.81,178.08,122.05,180.12A561.65,561.65,0,0,1,605,876.81c-4.28-11.41-7.94-23-11.2-35A183.27,183.27,0,0,1,588.3,821a553.39,553.39,0,0,1-12.83-195.2v-.21C594,455.45,688.76,308.13,824.87,218.48A553.84,553.84,0,0,1,1092.8,128,468.52,468.52,0,0,1,1153.32,307.72Z"/><path class="cls-1" d="M1169.19,421.89A451.28,451.28,0,0,1,1090,678.14a267.71,267.71,0,0,0-107.65-22.49,256.29,256.29,0,0,0-29.79,1.73c-107.08,11.73-195.12,86.31-226.46,186.08A253.84,253.84,0,0,0,718,875.57a271.6,271.6,0,0,0-4.42,48.82,283.08,283.08,0,0,0,5.77,56.14A439.9,439.9,0,0,1,693,875c-1.15-8.46-1.92-17.11-2.5-26-.77-10.19-1.15-20.57-1.15-30.95,0-182.43,107.65-339.68,263-411.77a450.75,450.75,0,0,1,190.51-41.91c7.69,0,15.19.2,22.68.58A428.55,428.55,0,0,1,1169.19,421.89Z"/><path class="cls-1" d="M1082.68,728.21C1007.79,837.44,882.44,909.32,740.1,910a232.94,232.94,0,0,1,7.44-29.57c28.86-91.88,109.94-160.57,208.55-171.37a233.8,233.8,0,0,1,27.44-1.6A246.65,246.65,0,0,1,1082.68,728.21Z"/><path class="cls-1" d="M547.55,821c-173.19-14.27-309.3-159.55-309.3-336.41a322.68,322.68,0,0,1,1.83-34.43c127.15.61,237.38,71.31,294.64,175.43v.21A553.39,553.39,0,0,0,547.55,821Z"/></g><g id="Layer_3" data-name="Layer 3"><path class="cls-1" d="M498.27,1244.12h54v256.16h-54v-50.92q-39.43,58-97.8,58.06-50.62,0-86.48-39.74t-35.86-96.57q0-53.71,36.17-93.92T399.22,1237q30.12,0,57.13,16.45t41.92,42.85ZM505.72,1373q0-35.09-25.19-60.08t-60.35-25q-34.21,0-59.73,24.84T335,1371.11q0,36.33,24.88,61.79t60.35,25.46q35.16,0,60.35-25.3T505.72,1373Z"/><path class="cls-1" d="M793.74,1422v61.79q-41.29,23.6-80.11,23.6-53.1,0-93-39.9t-39.9-92.37q0-59.62,39.74-98.89T720.15,1237q35.7,0,73.59,18.63v60.23q-40.68-26.07-77-26.08-33.53,0-58.68,23.6t-25.15,55.27q0,35.7,23.6,60.08t57.75,24.37Q749,1453.08,793.74,1422Z"/><path class="cls-1" d="M800.13,1371.11q0-52.47,41.45-93.3T936.75,1237q55.26,0,96.56,40.21t41.3,93.92q0,54-40.52,95.17t-93.61,41.14q-56.82,0-98.59-40.68T800.13,1371.11Zm222.32.16q0-32.67-24.84-56.78t-59-24.11q-35.08,0-60.39,24.42t-25.3,58.33q0,32.36,25.61,56.62T938.61,1454q33.54,0,58.69-24.88T1022.45,1371.27Z"/><path class="cls-1" d="M1108,1097.26h54v403h-54Z"/><path class="cls-1" d="M1198.25,1160q0-16.77,12.42-29a40.57,40.57,0,0,1,29.5-12.26q16.77,0,29,12.26t12.26,29a39.5,39.5,0,0,1-12.26,29.18q-12.27,12.1-29,12.11a40.82,40.82,0,0,1-29.5-12.11A39.28,39.28,0,0,1,1198.25,1160Zm15.22,84.14h53.4v256.16h-53.4Z"/></g></svg>