<svg width="3221" height="3221" viewBox="0 0 3221 3221" fill="none" xmlns="http://www.w3.org/2000/svg">
<rect width="3221" height="3221" fill="#fff"/>
<path d="M775.083 2613C775.083 2613 608 2613 608 2445.92C608 2278.83 775.083 1777.58 1610.5 1777.58C2445.92 1777.58 2613 2278.83 2613 2445.92C2613 2613 2445.92 2613 2445.92 2613H775.083ZM1610.5 1610.5C1743.44 1610.5 1870.93 1557.69 1964.94 1463.69C2058.94 1369.68 2111.75 1242.19 2111.75 1109.25C2111.75 976.31 2058.94 848.815 1964.94 754.813C1870.93 660.81 1743.44 608 1610.5 608C1477.56 608 1350.07 660.81 1256.06 754.813C1162.06 848.815 1109.25 976.31 1109.25 1109.25C1109.25 1242.19 1162.06 1369.68 1256.06 1463.69C1350.07 1557.69 1477.56 1610.5 1610.5 1610.5Z" fill="#A8A8A8"/>
</svg>
